<svg width="117" height="39" viewBox="0 0 117 39" fill="none" xmlns="http://www.w3.org/2000/svg">
<path d="M39.8928 10.6306C34.4706 10.6401 30.3064 14.8274 30.3213 20.2551C30.3363 25.6583 34.5331 29.8089 39.9784 29.7953C45.3939 29.7831 49.5798 25.5768 49.558 20.1695C49.5363 14.7621 45.3409 10.6197 39.8928 10.6306ZM42.0313 25.555C40.0015 26.4585 38.0818 26.0985 36.4147 24.6448C34.2559 22.759 33.8999 19.1369 35.5873 16.7104C36.0512 16.0305 36.6681 15.4689 37.3884 15.0706C38.1087 14.6723 38.9124 14.4486 39.7349 14.4173C40.5574 14.3859 41.3757 14.548 42.1242 14.8903C42.8727 15.2326 43.5305 15.7457 44.0448 16.3884C44.8912 17.4264 45.3314 18.7415 45.33 20.6789C45.2499 22.6381 44.2988 24.5442 42.0313 25.555Z" fill="#FFDBA4"/>
<path d="M60.8305 10.6237C55.3729 10.6319 51.1843 14.8191 51.1993 20.2699C51.2101 25.6487 55.4286 29.8047 60.8686 29.7979C66.2636 29.7912 70.4536 25.6243 70.4591 20.2659C70.4632 14.8029 66.2813 10.6169 60.8305 10.6237ZM60.1349 25.9598C58.082 25.7302 56.3308 24.1665 55.6909 21.9995C54.8757 19.2333 56.0305 16.243 58.3769 15.0297C61.7816 13.2635 65.78 15.5148 66.1821 19.4181C66.2093 19.6898 66.2147 19.9615 66.2188 20.0376C66.2175 23.7847 63.5043 26.3375 60.1349 25.9598Z" fill="#FFDBA4"/>
<path d="M104.221 23.1026C108.453 21.35 112.688 19.596 117 17.8121C116.668 17.0513 116.412 16.3734 116.088 15.728C113.654 10.894 108.418 9.18626 103.892 11.8233C100.923 13.5542 99.5988 16.3177 99.4086 19.668C99.0132 26.9149 105.907 31.8263 112.57 29.0507C114.319 28.3211 115.694 27.1201 116.795 25.5468L113.534 23.3866C110.852 27.3673 105.52 26.4638 104.221 23.1026ZM107.305 14.5121C109.221 13.9686 111.2 14.7267 112.003 16.3734L103.508 19.9058C103.297 17.4847 104.954 15.1778 107.305 14.5121Z" fill="#E78454"/>
<path d="M28.7806 13.5556H28.0062C24.0445 13.5556 20.0827 13.5556 16.121 13.5556C15.8737 13.5556 15.6278 13.5868 15.3806 13.6031H15.2447C15.2067 13.6249 15.1374 13.6452 15.1374 13.6683C15.1197 14.9156 15.1034 16.1641 15.1129 17.4127C15.1129 17.4711 15.3547 17.5268 15.4838 17.5839C15.6396 17.6078 15.7965 17.6237 15.9539 17.6314C18.8885 17.6314 21.824 17.6314 24.7605 17.6314C24.554 20.2128 23.4426 22.2806 21.3449 23.8335C16.9878 27.0616 8.53854 26.5087 5.41915 19.3949C3.61082 15.2715 4.13797 11.288 7.07123 7.82627C9.96238 4.41206 14.4757 3.22054 18.5842 4.7191C19.9591 5.22043 21.1995 6.08587 22.4182 6.74073L25.2795 4.06017C25.2795 4.06017 25.073 3.90665 24.9928 3.83192C19.7703 -1.00749 11.7503 -1.29551 5.88652 3.15261C-1.15794 8.5015 -2.02202 18.6096 4.0646 25.0183C7.64865 28.7912 12.1104 30.2748 17.2432 29.7041C22.9359 29.071 27.3704 25.15 28.6203 19.7346C29.0987 17.7079 29.1533 15.6043 28.7806 13.5556Z" fill="#E78454"/>
<path d="M90.4852 11.2569H86.5329C86.5112 11.7406 86.4922 12.1944 86.4677 12.7324L85.6335 12.0992L84.6825 11.4634C82.8946 10.4675 81.0047 10.4037 79.0891 10.9431C75.4357 11.9702 72.6152 15.2499 72.2375 18.9997C71.8177 23.153 73.4005 26.4028 76.9682 28.5875C79.8825 30.3714 83.8687 30.3156 86.3156 27.7723C86.3359 27.7519 86.3957 27.7723 86.4514 27.7723C86.4514 28.5603 86.5194 29.351 86.4392 30.1254C86.2014 32.4038 84.9841 33.8793 82.9788 34.4241C80.839 35.0056 78.7019 34.31 77.3989 32.5818C77.0878 32.1742 76.8378 31.7137 76.5294 31.2232L72.9372 32.7177C74.9616 37.5734 80.2602 39.5869 85.0846 37.7446L87.3345 36.4444C87.3415 36.4462 87.3488 36.4465 87.3559 36.4453C87.363 36.4441 87.3698 36.4414 87.3758 36.4375C87.3818 36.4335 87.3869 36.4283 87.3908 36.4223C87.3947 36.4162 87.3973 36.4094 87.3984 36.4023L87.5234 36.2868L87.6592 36.1509L88.1185 35.6713L88.1117 35.655C88.4568 35.2162 88.8575 34.81 89.1347 34.3317C90.136 32.6049 90.5096 30.7083 90.511 28.7288C90.511 23.0715 90.511 17.4137 90.511 11.7555C90.5151 11.6061 90.4974 11.4512 90.4852 11.2569ZM86.2816 22.8555C85.3605 25.0782 83.3701 26.2194 81.0346 25.9708C78.8853 25.7425 77.0131 23.9668 76.5281 21.6721C76.4262 21.1898 76.3922 20.6912 76.3555 20.3705C76.4357 18.1003 77.1951 16.3612 79.0048 15.201C79.5401 14.848 80.1402 14.6049 80.7703 14.486C81.4003 14.3671 82.0477 14.3747 82.6748 14.5083C83.3019 14.6419 83.8962 14.899 84.423 15.2644C84.9499 15.6299 85.3988 16.0965 85.7436 16.637C87.0139 18.5989 87.1701 20.7102 86.2816 22.8555Z" fill="#E78454"/>
<path d="M93.3546 1.04138V29.1893H97.4984V1.04138H93.3546Z" fill="#E78454"/>
</svg>
