<svg width="359" height="79" viewBox="0 0 359 79" fill="none" xmlns="http://www.w3.org/2000/svg">
<path opacity="0.5" d="M76.0512 43.597C75.1435 43.597 74.2563 43.3279 73.5016 42.8236C72.7469 42.3194 72.1587 41.6027 71.8114 40.7641C71.464 39.9255 71.3732 39.0028 71.5502 38.1126C71.7273 37.2224 72.1644 36.4047 72.8062 35.7629C73.448 35.1211 74.2657 34.684 75.1559 34.5069C76.0461 34.3299 76.9688 34.4208 77.8074 34.7681C78.6459 35.1154 79.3627 35.7036 79.8669 36.4583C80.3712 37.213 80.6403 38.1003 80.6403 39.0079C80.639 40.2246 80.155 41.3911 79.2947 42.2514C78.4344 43.1118 77.2679 43.5957 76.0512 43.597ZM76.0512 16.0622C76.9588 16.0622 77.8461 15.793 78.6008 15.2888C79.3555 14.7845 79.9437 14.0678 80.291 13.2292C80.6384 12.3907 80.7292 11.468 80.5522 10.5778C80.3751 9.68755 79.938 8.86984 79.2962 8.22804C78.6544 7.58624 77.8367 7.14916 76.9465 6.97209C76.0563 6.79502 75.1336 6.8859 74.295 7.23324C73.4565 7.58058 72.7397 8.16878 72.2355 8.92346C71.7312 9.67814 71.4621 10.5654 71.4621 11.4731C71.4634 12.6898 71.9474 13.8562 72.8077 14.7166C73.668 15.5769 74.8345 16.0608 76.0512 16.0622ZM79.3292 19.3402C79.3292 20.2478 79.5983 21.1351 80.1026 21.8897C80.6068 22.6444 81.3236 23.2326 82.1621 23.58C83.0007 23.9273 83.9234 24.0182 84.8136 23.8411C85.7038 23.664 86.5215 23.227 87.1633 22.5852C87.8051 21.9434 88.2422 21.1257 88.4193 20.2355C88.5963 19.3452 88.5055 18.4225 88.1581 17.584C87.8108 16.7454 87.2226 16.0287 86.4679 15.5244C85.7132 15.0202 84.826 14.751 83.9183 14.751C82.7016 14.7524 81.5351 15.2363 80.6748 16.0966C79.8145 16.957 79.3305 18.1235 79.3292 19.3402ZM79.3292 31.1408C79.3292 32.0485 79.5983 32.9357 80.1026 33.6904C80.6068 34.4451 81.3236 35.0333 82.1621 35.3806C83.0007 35.728 83.9234 35.8188 84.8136 35.6418C85.7038 35.4647 86.5215 35.0276 87.1633 34.3858C87.8051 33.744 88.2422 32.9263 88.4193 32.0361C88.5963 31.1459 88.5055 30.2232 88.1581 29.3846C87.8108 28.5461 87.2226 27.8293 86.4679 27.3251C85.7132 26.8208 84.826 26.5517 83.9183 26.5517C82.7016 26.553 81.5351 27.037 80.6748 27.8973C79.8145 28.7576 79.3305 29.9241 79.3292 31.1408ZM69.3568 34.9255C70.0996 33.5831 71.3448 32.5903 72.819 32.1652C74.3184 31.7294 75.6359 30.8188 76.5735 29.5701C77.511 28.3215 78.0179 26.8022 78.018 25.2408C78.018 23.6793 77.5113 22.16 76.5739 20.9112C75.6365 19.6624 74.3191 18.7517 72.8197 18.3158C71.3475 17.8924 70.1034 16.9021 69.3607 15.5623C68.5586 14.0828 67.2183 12.9682 65.6172 12.4495C64.0161 11.9307 62.2769 12.0475 60.7595 12.7756C59.2421 13.5036 58.0628 14.7873 57.4656 16.3608C56.8685 17.9343 56.8992 19.6772 57.5515 21.2287C58.6112 23.7927 58.6134 26.6719 57.5576 29.2376C56.9007 30.7882 56.8656 32.5321 57.4595 34.1079C58.0535 35.6837 59.2309 36.9706 60.7479 37.7018C62.2648 38.4331 64.005 38.5527 65.6077 38.0358C67.2105 37.519 68.5529 36.4052 69.3568 34.9255Z" fill="#E78455"/>
<path opacity="0.7" d="M162.592 43.597C161.684 43.597 160.797 43.3279 160.042 42.8236C159.287 42.3194 158.699 41.6027 158.352 40.7641C158.005 39.9255 157.914 39.0028 158.091 38.1126C158.268 37.2224 158.705 36.4047 159.347 35.7629C159.988 35.1211 160.806 34.684 161.696 34.5069C162.587 34.3299 163.509 34.4208 164.348 34.7681C165.186 35.1154 165.903 35.7036 166.407 36.4583C166.912 37.213 167.181 38.1003 167.181 39.0079C167.179 40.2246 166.696 41.3911 165.835 42.2514C164.975 43.1118 163.808 43.5957 162.592 43.597ZM162.592 16.0622C163.499 16.0622 164.387 15.793 165.141 15.2888C165.896 14.7845 166.484 14.0678 166.831 13.2292C167.179 12.3907 167.27 11.468 167.093 10.5778C166.916 9.68755 166.478 8.86984 165.837 8.22804C165.195 7.58624 164.377 7.14916 163.487 6.97209C162.597 6.79502 161.674 6.8859 160.835 7.23324C159.997 7.58058 159.28 8.16878 158.776 8.92346C158.272 9.67814 158.003 10.5654 158.003 11.4731C158.004 12.6898 158.488 13.8562 159.348 14.7166C160.208 15.5769 161.375 16.0608 162.592 16.0622ZM165.87 19.3402C165.87 20.2478 166.139 21.1351 166.643 21.8897C167.147 22.6444 167.864 23.2326 168.703 23.58C169.541 23.9273 170.464 24.0182 171.354 23.8411C172.244 23.664 173.062 23.227 173.704 22.5852C174.346 21.9434 174.783 21.1257 174.96 20.2355C175.137 19.3452 175.046 18.4225 174.699 17.584C174.351 16.7454 173.763 16.0287 173.008 15.5244C172.254 15.0202 171.366 14.751 170.459 14.751C169.242 14.7524 168.076 15.2363 167.215 16.0966C166.355 16.957 165.871 18.1235 165.87 19.3402ZM165.87 31.1408C165.87 32.0485 166.139 32.9357 166.643 33.6904C167.147 34.4451 167.864 35.0333 168.703 35.3806C169.541 35.728 170.464 35.8188 171.354 35.6418C172.244 35.4647 173.062 35.0276 173.704 34.3858C174.346 33.744 174.783 32.9263 174.96 32.0361C175.137 31.1459 175.046 30.2232 174.699 29.3846C174.351 28.5461 173.763 27.8293 173.008 27.3251C172.254 26.8208 171.366 26.5517 170.459 26.5517C169.242 26.553 168.076 27.037 167.215 27.8973C166.355 28.7576 165.871 29.9241 165.87 31.1408ZM155.897 34.9255C156.64 33.5831 157.885 32.5903 159.359 32.1652C160.859 31.7294 162.176 30.8188 163.114 29.5701C164.051 28.3215 164.558 26.8022 164.558 25.2408C164.559 23.6793 164.052 22.16 163.114 20.9112C162.177 19.6624 160.86 18.7517 159.36 18.3158C157.888 17.8924 156.644 16.9021 155.901 15.5623C155.099 14.0828 153.759 12.9682 152.158 12.4495C150.557 11.9307 148.817 12.0475 147.3 12.7756C145.783 13.5036 144.603 14.7873 144.006 16.3608C143.409 17.9343 143.44 19.6772 144.092 21.2287C145.152 23.7927 145.154 26.6719 144.098 29.2376C143.441 30.7882 143.406 32.5321 144 34.1079C144.594 35.6837 145.771 36.9706 147.288 37.7018C148.805 38.4331 150.545 38.5527 152.148 38.0358C153.751 37.519 155.093 36.4052 155.897 34.9255Z" fill="#E78455"/>
<path opacity="0.6" d="M122.272 79C121.364 79 120.477 78.7309 119.722 78.2266C118.967 77.7223 118.379 77.0056 118.032 76.167C117.684 75.3285 117.594 74.4058 117.771 73.5156C117.948 72.6254 118.385 71.8077 119.027 71.1658C119.668 70.524 120.486 70.087 121.376 69.9099C122.267 69.7328 123.189 69.8237 124.028 70.171C124.866 70.5184 125.583 71.1066 126.087 71.8613C126.592 72.616 126.861 73.5032 126.861 74.4109C126.859 75.6276 126.375 76.794 125.515 77.6544C124.655 78.5147 123.488 78.9986 122.272 79ZM122.272 51.4652C123.179 51.4652 124.067 51.196 124.821 50.6917C125.576 50.1875 126.164 49.4708 126.511 48.6322C126.859 47.7936 126.95 46.8709 126.773 45.9807C126.596 45.0905 126.158 44.2728 125.517 43.631C124.875 42.9892 124.057 42.5521 123.167 42.375C122.277 42.198 121.354 42.2889 120.515 42.6362C119.677 42.9835 118.96 43.5717 118.456 44.3264C117.952 45.0811 117.682 45.9684 117.682 46.876C117.684 48.0927 118.168 49.2592 119.028 50.1195C119.888 50.9799 121.055 51.4638 122.272 51.4652ZM125.55 54.7431C125.55 55.6508 125.819 56.538 126.323 57.2927C126.827 58.0474 127.544 58.6356 128.383 58.9829C129.221 59.3303 130.144 59.4211 131.034 59.2441C131.924 59.067 132.742 58.6299 133.384 57.9881C134.026 57.3463 134.463 56.5286 134.64 55.6384C134.817 54.7482 134.726 53.8255 134.379 52.9869C134.031 52.1484 133.443 51.4316 132.688 50.9274C131.934 50.4231 131.046 50.154 130.139 50.154C128.922 50.1553 127.756 50.6393 126.895 51.4996C126.035 52.3599 125.551 53.5264 125.55 54.7431ZM125.55 66.5438C125.55 67.4514 125.819 68.3387 126.323 69.0934C126.827 69.848 127.544 70.4362 128.383 70.7836C129.221 71.1309 130.144 71.2218 131.034 71.0447C131.924 70.8677 132.742 70.4306 133.384 69.7888C134.026 69.147 134.463 68.3293 134.64 67.4391C134.817 66.5489 134.726 65.6261 134.379 64.7876C134.031 63.949 133.443 63.2323 132.688 62.728C131.934 62.2238 131.046 61.9546 130.139 61.9546C128.922 61.956 127.756 62.4399 126.895 63.3003C126.035 64.1606 125.551 65.3271 125.55 66.5438ZM115.577 70.3285C116.32 68.986 117.565 67.9933 119.039 67.5681C120.539 67.1324 121.856 66.2218 122.794 64.9731C123.731 63.7244 124.238 62.2052 124.238 60.6437C124.238 59.0822 123.732 57.563 122.794 56.3142C121.857 55.0654 120.54 54.1546 119.04 53.7187C117.568 53.2954 116.324 52.3051 115.581 50.9653C114.779 49.4857 113.439 48.3712 111.838 47.8524C110.237 47.3337 108.497 47.4504 106.98 48.1785C105.463 48.9066 104.283 50.1902 103.686 51.7638C103.089 53.3373 103.12 55.0801 103.772 56.6316C104.832 59.1957 104.834 62.0749 103.778 64.6405C103.121 66.1911 103.086 67.9351 103.68 69.5109C104.274 71.0867 105.451 72.3735 106.968 73.1048C108.485 73.8361 110.225 73.9557 111.828 73.4388C113.431 72.9219 114.773 71.8082 115.577 70.3285Z" fill="#E78455"/>
<path opacity="0.4" d="M19.013 76.0497C18.1054 76.0497 17.2181 75.7806 16.4634 75.2763C15.7088 74.7721 15.1206 74.0554 14.7732 73.2168C14.4259 72.3782 14.335 71.4555 14.5121 70.5653C14.6891 69.6751 15.1262 68.8574 15.768 68.2156C16.4098 67.5738 17.2275 67.1367 18.1177 66.9596C19.0079 66.7826 19.9307 66.8735 20.7692 67.2208C21.6078 67.5681 22.3245 68.1563 22.8288 68.911C23.333 69.6657 23.6022 70.553 23.6022 71.4606C23.6008 72.6773 23.1169 73.8438 22.2565 74.7041C21.3962 75.5644 20.2297 76.0484 19.013 76.0497ZM19.013 48.5149C19.9207 48.5149 20.8079 48.2457 21.5626 47.7415C22.3173 47.2372 22.9055 46.5205 23.2529 45.6819C23.6002 44.8434 23.6911 43.9207 23.514 43.0305C23.3369 42.1402 22.8999 41.3225 22.2581 40.6807C21.6162 40.0389 20.7985 39.6019 19.9083 39.4248C19.0181 39.2477 18.0954 39.3386 17.2568 39.6859C16.4183 40.0333 15.7016 40.6215 15.1973 41.3762C14.693 42.1308 14.4239 43.0181 14.4239 43.9258C14.4253 45.1424 14.9092 46.3089 15.7695 47.1693C16.6299 48.0296 17.7963 48.5135 19.013 48.5149ZM22.291 51.7929C22.291 52.7005 22.5601 53.5878 23.0644 54.3424C23.5687 55.0971 24.2854 55.6853 25.124 56.0327C25.9625 56.38 26.8852 56.4709 27.7754 56.2938C28.6656 56.1167 29.4834 55.6797 30.1252 55.0379C30.767 54.3961 31.204 53.5784 31.3811 52.6882C31.5582 51.7979 31.4673 50.8752 31.12 50.0367C30.7726 49.1981 30.1844 48.4814 29.4297 47.9771C28.6751 47.4729 27.7878 47.2037 26.8801 47.2037C25.6634 47.2051 24.497 47.689 23.6366 48.5493C22.7763 49.4097 22.2924 50.5762 22.291 51.7929ZM22.291 63.5935C22.291 64.5012 22.5601 65.3884 23.0644 66.1431C23.5687 66.8978 24.2854 67.486 25.124 67.8333C25.9625 68.1807 26.8852 68.2715 27.7754 68.0945C28.6656 67.9174 29.4834 67.4803 30.1252 66.8385C30.767 66.1967 31.204 65.379 31.3811 64.4888C31.5582 63.5986 31.4673 62.6759 31.12 61.8373C30.7726 60.9988 30.1844 60.282 29.4297 59.7778C28.6751 59.2735 27.7878 59.0044 26.8801 59.0044C25.6634 59.0057 24.497 59.4897 23.6366 60.35C22.7763 61.2103 22.2924 62.3768 22.291 63.5935ZM12.3187 67.3782C13.0615 66.0358 14.3067 65.043 15.7808 64.6179C17.2803 64.1821 18.5978 63.2715 19.5353 62.0228C20.4728 60.7742 20.9797 59.2549 20.9798 57.6934C20.9799 56.132 20.4731 54.6127 19.5357 53.3639C18.5984 52.1151 17.281 51.2044 15.7816 50.7685C14.3093 50.3451 13.0653 49.3548 12.3225 48.015C11.5204 46.5354 10.1801 45.4209 8.57902 44.9022C6.97795 44.3834 5.2387 44.5002 3.72132 45.2282C2.20394 45.9563 1.02461 47.24 0.427461 48.8135C-0.169692 50.387 -0.138939 52.1299 0.513349 53.6814C1.57303 56.2454 1.57521 59.1246 0.519431 61.6903C-0.137464 63.2409 -0.17258 64.9848 0.421357 66.5606C1.0153 68.1364 2.19275 69.4233 3.70971 70.1545C5.22667 70.8858 6.96683 71.0054 8.56957 70.4885C10.1723 69.9717 11.5147 68.8579 12.3187 67.3782Z" fill="#E78455"/>
<path opacity="0.8" d="M208.812 79C207.905 79 207.017 78.7309 206.263 78.2266C205.508 77.7223 204.92 77.0056 204.572 76.167C204.225 75.3285 204.134 74.4058 204.311 73.5156C204.488 72.6254 204.925 71.8077 205.567 71.1658C206.209 70.524 207.027 70.087 207.917 69.9099C208.807 69.7328 209.73 69.8237 210.568 70.171C211.407 70.5184 212.124 71.1066 212.628 71.8613C213.132 72.616 213.401 73.5032 213.401 74.4109C213.4 75.6276 212.916 76.794 212.056 77.6544C211.195 78.5147 210.029 78.9986 208.812 79ZM208.812 51.4652C209.72 51.4652 210.607 51.196 211.362 50.6917C212.116 50.1875 212.705 49.4708 213.052 48.6322C213.399 47.7936 213.49 46.8709 213.313 45.9807C213.136 45.0905 212.699 44.2728 212.057 43.631C211.415 42.9892 210.598 42.5521 209.707 42.375C208.817 42.198 207.895 42.2889 207.056 42.6362C206.217 42.9835 205.501 43.5717 204.996 44.3264C204.492 45.0811 204.223 45.9684 204.223 46.876C204.224 48.0927 204.708 49.2592 205.569 50.1195C206.429 50.9799 207.595 51.4638 208.812 51.4652ZM212.09 54.7431C212.09 55.6508 212.359 56.538 212.864 57.2927C213.368 58.0474 214.085 58.6356 214.923 58.9829C215.762 59.3303 216.684 59.4211 217.575 59.2441C218.465 59.067 219.283 58.6299 219.924 57.9881C220.566 57.3463 221.003 56.5286 221.18 55.6384C221.357 54.7482 221.266 53.8255 220.919 52.9869C220.572 52.1484 219.984 51.4316 219.229 50.9274C218.474 50.4231 217.587 50.154 216.679 50.154C215.463 50.1553 214.296 50.6393 213.436 51.4996C212.575 52.3599 212.092 53.5264 212.09 54.7431ZM212.09 66.5438C212.09 67.4514 212.359 68.3387 212.864 69.0934C213.368 69.848 214.085 70.4362 214.923 70.7836C215.762 71.1309 216.684 71.2218 217.575 71.0447C218.465 70.8677 219.283 70.4306 219.924 69.7888C220.566 69.147 221.003 68.3293 221.18 67.4391C221.357 66.5489 221.266 65.6261 220.919 64.7876C220.572 63.949 219.984 63.2323 219.229 62.728C218.474 62.2238 217.587 61.9546 216.679 61.9546C215.463 61.956 214.296 62.4399 213.436 63.3003C212.575 64.1606 212.092 65.3271 212.09 66.5438ZM202.118 70.3285C202.861 68.986 204.106 67.9933 205.58 67.5681C207.079 67.1324 208.397 66.2218 209.334 64.9731C210.272 63.7244 210.779 62.2052 210.779 60.6437C210.779 59.0822 210.272 57.563 209.335 56.3142C208.398 55.0654 207.08 54.1546 205.581 53.7187C204.108 53.2954 202.864 52.3051 202.122 50.9653C201.32 49.4857 199.979 48.3712 198.378 47.8524C196.777 47.3337 195.038 47.4504 193.52 48.1785C192.003 48.9066 190.824 50.1902 190.227 51.7638C189.629 53.3373 189.66 55.0801 190.312 56.6316C191.372 59.1957 191.374 62.0749 190.319 64.6405C189.662 66.1911 189.627 67.9351 190.221 69.5109C190.814 71.0867 191.992 72.3735 193.509 73.1048C195.026 73.8361 196.766 73.9557 198.369 73.4388C199.971 72.9219 201.314 71.8082 202.118 70.3285Z" fill="#E78455"/>
<path opacity="0.9" d="M243.232 40.6468C242.324 40.6468 241.437 40.3776 240.682 39.8734C239.927 39.3691 239.339 38.6524 238.992 37.8138C238.645 36.9753 238.554 36.0526 238.731 35.1624C238.908 34.2721 239.345 33.4544 239.987 32.8126C240.629 32.1708 241.446 31.7338 242.336 31.5567C243.227 31.3796 244.149 31.4705 244.988 31.8178C245.826 32.1652 246.543 32.7534 247.047 33.5081C247.552 34.2627 247.821 35.15 247.821 36.0577C247.82 37.2743 247.336 38.4408 246.475 39.3012C245.615 40.1615 244.448 40.6454 243.232 40.6468ZM243.232 13.1119C244.139 13.1119 245.027 12.8428 245.781 12.3385C246.536 11.8343 247.124 11.1175 247.472 10.279C247.819 9.44043 247.91 8.51771 247.733 7.6275C247.556 6.7373 247.119 5.91959 246.477 5.27779C245.835 4.63598 245.017 4.19891 244.127 4.02184C243.237 3.84476 242.314 3.93564 241.476 4.28298C240.637 4.63033 239.92 5.21853 239.416 5.97321C238.912 6.72789 238.643 7.61515 238.643 8.5228C238.644 9.7395 239.128 10.906 239.988 11.7663C240.849 12.6266 242.015 13.1106 243.232 13.1119ZM246.51 16.3899C246.51 17.2975 246.779 18.1848 247.283 18.9395C247.787 19.6942 248.504 20.2824 249.343 20.6297C250.181 20.9771 251.104 21.0679 251.994 20.8909C252.884 20.7138 253.702 20.2767 254.344 19.6349C254.986 18.9931 255.423 18.1754 255.6 17.2852C255.777 16.395 255.686 15.4723 255.339 14.6337C254.991 13.7952 254.403 13.0784 253.648 12.5742C252.894 12.0699 252.006 11.8008 251.099 11.8008C249.882 11.8021 248.716 12.2861 247.855 13.1464C246.995 14.0067 246.511 15.1732 246.51 16.3899ZM246.51 28.1906C246.51 29.0982 246.779 29.9855 247.283 30.7401C247.787 31.4948 248.504 32.083 249.343 32.4304C250.181 32.7777 251.104 32.8686 251.994 32.6915C252.884 32.5144 253.702 32.0774 254.344 31.4356C254.986 30.7938 255.423 29.9761 255.6 29.0858C255.777 28.1956 255.686 27.2729 255.339 26.4344C254.991 25.5958 254.403 24.8791 253.648 24.3748C252.894 23.8706 252.006 23.6014 251.099 23.6014C249.882 23.6028 248.716 24.0867 247.855 24.947C246.995 25.8074 246.511 26.9739 246.51 28.1906ZM236.537 31.9752C237.28 30.6328 238.525 29.6401 240 29.2149C241.499 28.7792 242.816 27.8686 243.754 26.6199C244.692 25.3712 245.198 23.852 245.199 22.2905C245.199 20.729 244.692 19.2097 243.754 17.961C242.817 16.7122 241.5 15.8014 240 15.3655C238.528 14.9421 237.284 13.9519 236.541 12.6121C235.739 11.1325 234.399 10.018 232.798 9.49922C231.197 8.98047 229.457 9.09722 227.94 9.82529C226.423 10.5534 225.243 11.837 224.646 13.4105C224.049 14.9841 224.08 16.7269 224.732 18.2784C225.792 20.8425 225.794 23.7216 224.738 26.2873C224.081 27.8379 224.046 29.5818 224.64 31.1576C225.234 32.7334 226.411 34.0203 227.928 34.7516C229.445 35.4829 231.186 35.6024 232.788 35.0856C234.391 34.5687 235.733 33.455 236.537 31.9752Z" fill="#E78455"/>
<path opacity="0.95" d="M289.452 76.0497C288.545 76.0497 287.657 75.7806 286.903 75.2763C286.148 74.7721 285.56 74.0554 285.212 73.2168C284.865 72.3782 284.774 71.4555 284.951 70.5653C285.128 69.6751 285.565 68.8574 286.207 68.2156C286.849 67.5738 287.667 67.1367 288.557 66.9596C289.447 66.7826 290.37 66.8735 291.208 67.2208C292.047 67.5681 292.764 68.1563 293.268 68.911C293.772 69.6657 294.041 70.553 294.041 71.4606C294.04 72.6773 293.556 73.8438 292.696 74.7041C291.835 75.5644 290.669 76.0484 289.452 76.0497ZM289.452 48.5149C290.36 48.5149 291.247 48.2457 292.002 47.7415C292.757 47.2372 293.345 46.5205 293.692 45.6819C294.039 44.8434 294.13 43.9207 293.953 43.0305C293.776 42.1402 293.339 41.3225 292.697 40.6807C292.055 40.0389 291.238 39.6019 290.348 39.4248C289.457 39.2477 288.535 39.3386 287.696 39.6859C286.857 40.0333 286.141 40.6215 285.636 41.3762C285.132 42.1308 284.863 43.0181 284.863 43.9258C284.864 45.1424 285.348 46.3089 286.209 47.1693C287.069 48.0296 288.236 48.5135 289.452 48.5149ZM292.73 51.7929C292.73 52.7005 292.999 53.5878 293.504 54.3424C294.008 55.0971 294.725 55.6853 295.563 56.0327C296.402 56.38 297.324 56.4709 298.215 56.2938C299.105 56.1167 299.923 55.6797 300.564 55.0379C301.206 54.3961 301.643 53.5784 301.82 52.6882C301.997 51.7979 301.906 50.8752 301.559 50.0367C301.212 49.1981 300.624 48.4814 299.869 47.9771C299.114 47.4729 298.227 47.2037 297.319 47.2037C296.103 47.2051 294.936 47.689 294.076 48.5493C293.215 49.4097 292.732 50.5762 292.73 51.7929ZM292.73 63.5935C292.73 64.5012 292.999 65.3884 293.504 66.1431C294.008 66.8978 294.725 67.486 295.563 67.8333C296.402 68.1807 297.324 68.2715 298.215 68.0945C299.105 67.9174 299.923 67.4803 300.564 66.8385C301.206 66.1967 301.643 65.379 301.82 64.4888C301.997 63.5986 301.906 62.6759 301.559 61.8373C301.212 60.9988 300.624 60.282 299.869 59.7778C299.114 59.2735 298.227 59.0044 297.319 59.0044C296.103 59.0057 294.936 59.4897 294.076 60.35C293.215 61.2103 292.732 62.3768 292.73 63.5935ZM282.758 67.3782C283.501 66.0358 284.746 65.043 286.22 64.6179C287.719 64.1821 289.037 63.2715 289.974 62.0228C290.912 60.7742 291.419 59.2549 291.419 57.6934C291.419 56.132 290.912 54.6127 289.975 53.3639C289.038 52.1151 287.72 51.2044 286.221 50.7685C284.749 50.3451 283.504 49.3548 282.762 48.015C281.96 46.5354 280.619 45.4209 279.018 44.9022C277.417 44.3834 275.678 44.5002 274.161 45.2282C272.643 45.9563 271.464 47.24 270.867 48.8135C270.27 50.387 270.3 52.1299 270.953 53.6814C272.012 56.2454 272.014 59.1246 270.959 61.6903C270.302 63.2409 270.267 64.9848 270.861 66.5606C271.454 68.1364 272.632 69.4233 274.149 70.1545C275.666 70.8858 277.406 71.0054 279.009 70.4885C280.611 69.9717 281.954 68.8579 282.758 67.3782Z" fill="#E78455"/>
<path d="M346.49 36.7131C345.583 36.7131 344.695 36.444 343.941 35.9397C343.186 35.4355 342.598 34.7187 342.25 33.8802C341.903 33.0416 341.812 32.1189 341.989 31.2287C342.166 30.3385 342.603 29.5208 343.245 28.879C343.887 28.2372 344.705 27.8001 345.595 27.623C346.485 27.446 347.408 27.5368 348.247 27.8842C349.085 28.2315 349.802 28.8197 350.306 29.5744C350.81 30.3291 351.079 31.2164 351.079 32.124C351.078 33.3407 350.594 34.5072 349.734 35.3675C348.873 36.2278 347.707 36.7118 346.49 36.7131ZM346.49 9.17829C347.398 9.17829 348.285 8.90914 349.04 8.40488C349.795 7.90061 350.383 7.18389 350.73 6.34533C351.077 5.50678 351.168 4.58405 350.991 3.69385C350.814 2.80364 350.377 1.98593 349.735 1.34413C349.094 0.702327 348.276 0.265254 347.386 0.0881806C346.495 -0.0888925 345.573 0.00198781 344.734 0.349329C343.896 0.69667 343.179 1.28487 342.675 2.03955C342.17 2.79423 341.901 3.6815 341.901 4.58914C341.903 5.80584 342.386 6.97231 343.247 7.83265C344.107 8.69298 345.274 9.17692 346.49 9.17829ZM349.768 12.4562C349.768 13.3639 350.037 14.2512 350.542 15.0058C351.046 15.7605 351.763 16.3487 352.601 16.6961C353.44 17.0434 354.363 17.1343 355.253 16.9572C356.143 16.7801 356.961 16.3431 357.602 15.7013C358.244 15.0595 358.681 14.2417 358.858 13.3515C359.035 12.4613 358.945 11.5386 358.597 10.7001C358.25 9.8615 357.662 9.14477 356.907 8.64051C356.152 8.13625 355.265 7.8671 354.357 7.8671C353.141 7.86847 351.974 8.3524 351.114 9.21274C350.254 10.0731 349.77 11.2395 349.768 12.4562ZM349.768 24.2569C349.768 25.1645 350.037 26.0518 350.542 26.8065C351.046 27.5612 351.763 28.1494 352.601 28.4967C353.44 28.8441 354.363 28.9349 355.253 28.7579C356.143 28.5808 356.961 28.1437 357.602 27.5019C358.244 26.8601 358.681 26.0424 358.858 25.1522C359.035 24.262 358.945 23.3393 358.597 22.5007C358.25 21.6622 357.662 20.9454 356.907 20.4412C356.152 19.9369 355.265 19.6678 354.357 19.6678C353.141 19.6691 351.974 20.1531 351.114 21.0134C350.254 21.8737 349.77 23.0402 349.768 24.2569ZM339.796 28.0416C340.539 26.6992 341.784 25.7064 343.258 25.2813C344.758 24.8455 346.075 23.9349 347.013 22.6862C347.95 21.4375 348.457 19.9183 348.457 18.3568C348.457 16.7954 347.95 15.2761 347.013 14.0273C346.076 12.7785 344.758 11.8678 343.259 11.4319C341.787 11.0085 340.543 10.0182 339.8 8.67843C338.998 7.19884 337.657 6.08432 336.056 5.56557C334.455 5.04681 332.716 5.16356 331.199 5.89164C329.681 6.61972 328.502 7.90337 327.905 9.47689C327.308 11.0504 327.338 12.7933 327.991 14.3448C329.05 16.9088 329.052 19.788 327.997 22.3537C327.34 23.9043 327.305 25.6482 327.899 27.224C328.493 28.7998 329.67 30.0867 331.187 30.8179C332.704 31.5492 334.444 31.6688 336.047 31.1519C337.65 30.635 338.992 29.5213 339.796 28.0416Z" fill="#E78455"/>
</svg>
