<svg width="54" height="64" viewBox="0 0 54 64" fill="none" xmlns="http://www.w3.org/2000/svg">
<path d="M12.2122 49.6776C11.5778 49.7104 10.9589 49.8856 10.4014 50.1903C9.84399 50.4949 9.36233 50.9213 8.99222 51.4376C8.23222 52.6176 8.1522 54.1376 7.4422 55.3476C6.77426 56.1836 6.1565 57.0584 5.5922 57.9676C5.30673 58.7467 5.28628 59.5982 5.53397 60.3901C5.78166 61.182 6.28367 61.87 6.96219 62.3476C7.65717 62.8022 8.45012 63.0855 9.27585 63.1742C10.1016 63.2629 10.9365 63.1544 11.7122 62.8576C12.7035 62.3695 13.7379 61.9745 14.8022 61.6776C15.9622 61.4976 17.1522 61.8676 18.3122 61.7276C18.9429 61.6553 19.548 61.4368 20.0794 61.0895C20.6109 60.7423 21.0539 60.2758 21.3734 59.7272C21.6928 59.1786 21.8798 58.5631 21.9196 57.9295C21.9593 57.2959 21.8506 56.6618 21.6022 56.0776C21.0012 54.8885 20.0618 53.9038 18.9022 53.2476C17.7413 52.601 16.6344 51.8619 15.5922 51.0376C15.1376 50.5605 14.6349 50.1315 14.0922 49.7576C13.4989 49.4912 12.826 49.4626 12.2122 49.6776Z" fill="#FDAD8D"/>
<path d="M0.33227 49.1776C0.0181169 49.8373 -0.0765241 50.5803 0.06225 51.2976C0.203019 52.0003 0.456275 52.6756 0.81225 53.2976C1.25541 54.2358 1.9471 55.0347 2.81225 55.6076C3.23475 55.9238 3.74805 56.0951 4.27575 56.0961C4.80345 56.097 5.31735 55.9276 5.74099 55.6129C6.16463 55.2983 6.47537 54.8553 6.62695 54.3498C6.77853 53.8443 6.76286 53.3035 6.58227 52.8076C5.96596 51.0591 4.6875 49.6226 3.02227 48.8076C2.60083 48.5517 2.10479 48.4468 1.61584 48.5104C1.12689 48.5741 0.674178 48.8023 0.33227 49.1576" fill="#FDAD8D"/>
<path d="M7.5822 40.2376C6.96884 40.1907 6.3569 40.3449 5.83904 40.6769C5.32118 41.0089 4.92558 41.5006 4.71218 42.0776C4.34597 43.0931 4.26641 44.1899 4.4822 45.2476C4.59757 46.0537 4.84772 46.8346 5.22219 47.5576C5.59372 48.288 6.15724 48.9034 6.85219 49.3376C7.30269 49.6368 7.84554 49.7645 8.38219 49.6976C8.79649 49.5832 9.17722 49.3709 9.49224 49.0785C9.80725 48.7861 10.0473 48.4222 10.1922 48.0176C10.9003 46.4785 11.0039 44.7295 10.4822 43.1176C10.2733 42.4287 9.91088 41.7962 9.4222 41.2676C8.94185 40.7275 8.29376 40.3647 7.5822 40.2376Z" fill="#FDAD8D"/>
<path d="M23.2122 44.7876C23.7385 45.2827 24.0895 45.9355 24.2122 46.6476C24.3537 47.3593 24.3707 48.0902 24.2622 48.8076C24.2045 49.8453 23.8582 50.8462 23.2622 51.6976C22.9826 52.1419 22.5683 52.4851 22.0797 52.677C21.5911 52.8689 21.0539 52.8996 20.5466 52.7644C20.0394 52.6292 19.5887 52.3353 19.2605 51.9257C18.9322 51.516 18.7436 51.0121 18.7222 50.4876C18.6351 49.4565 18.825 48.4208 19.2722 47.4876C19.5527 46.7379 19.989 46.0563 20.5522 45.4876C20.85 45.0976 21.2711 44.8199 21.747 44.7001C22.2228 44.5802 22.7252 44.6252 23.1722 44.8276" fill="#FDAD8D"/>
<path d="M13.1722 39.1576C13.7241 38.8891 14.3483 38.8073 14.9508 38.9246C15.5532 39.0418 16.1012 39.3517 16.5122 39.8076C17.2374 40.6098 17.7195 41.6017 17.9022 42.6676C18.0968 43.4586 18.1576 44.2765 18.0822 45.0876C18.0066 45.9052 17.7092 46.6866 17.2222 47.3476C16.9107 47.7893 16.4542 48.1078 15.9322 48.2476C15.5054 48.296 15.0733 48.2402 14.6728 48.0853C14.2723 47.9303 13.9152 47.6806 13.6322 47.3576C12.4044 46.1924 11.6616 44.6067 11.5522 42.9176C11.4922 42.1982 11.5912 41.4744 11.8422 40.7976C12.0946 40.1204 12.5617 39.5444 13.1722 39.1576Z" fill="#FDAD8D"/>
<path d="M36.1022 16.0276C35.2768 15.6077 34.3678 15.3781 33.442 15.3557C32.5162 15.3332 31.5971 15.5183 30.7522 15.8976C28.9222 16.8276 27.7522 18.6876 25.9422 19.6976C24.5822 20.4676 22.9422 20.6976 21.6922 21.6976C20.7638 22.4711 20.1165 23.5293 19.8507 24.7081C19.585 25.887 19.7155 27.1205 20.2222 28.2176C20.7684 29.2974 21.5623 30.2327 22.539 30.947C23.5158 31.6613 24.6477 32.1344 25.8422 32.3276C27.4222 32.6176 29.0922 32.5176 30.6022 33.0976C32.1122 33.6776 33.4223 35.0976 34.9923 35.7276C35.8409 36.0843 36.7603 36.241 37.6792 36.1855C38.5981 36.13 39.4919 35.8637 40.2915 35.4074C41.091 34.9511 41.7748 34.3169 42.29 33.554C42.8051 32.791 43.1378 31.9197 43.2622 31.0076C43.3776 29.0655 42.911 27.1331 41.9223 25.4576C40.9397 23.7944 40.084 22.0594 39.3623 20.2676C39.1228 19.3291 38.7877 18.4177 38.3623 17.5476C37.8348 16.7668 37.0243 16.2217 36.1022 16.0276Z" fill="#FDAD8D"/>
<path d="M21.5323 6.72759C20.6507 7.32178 19.9844 8.18453 19.6323 9.18761C19.2907 10.1893 19.1117 11.2393 19.1023 12.2976C18.9783 13.8036 19.2687 15.3149 19.9423 16.6676C20.2499 17.3694 20.7745 17.954 21.4391 18.3355C22.1037 18.7169 22.8732 18.8751 23.6343 18.7867C24.3955 18.6982 25.1082 18.3679 25.6677 17.8443C26.2271 17.3206 26.6038 16.6313 26.7423 15.8776C27.0927 14.401 27.0409 12.8574 26.5923 11.4076C26.3487 10.2623 25.8647 9.18182 25.1723 8.2376C24.4523 7.3276 23.5923 6.23759 21.5323 6.72759Z" fill="#FDAD8D"/>
<path d="M37.1922 0.737636C36.4496 0.221986 35.5583 -0.0357474 34.6551 0.00399381C33.7519 0.043735 32.8866 0.378725 32.1922 0.957607C30.9906 1.9716 30.0911 3.29663 29.5922 4.78762C29.1523 5.89242 28.8924 7.06059 28.8222 8.24765C28.7595 9.43877 29.0222 10.6245 29.5822 11.6776C29.9337 12.3859 30.5256 12.9459 31.2522 13.2576C31.8587 13.4135 32.4936 13.4223 33.1042 13.2832C33.7147 13.144 34.2832 12.861 34.7622 12.4576C36.7849 11.0258 38.1921 8.88275 38.7022 6.45761C38.927 5.42976 38.927 4.36546 38.7022 3.33761C38.4877 2.33262 37.9588 1.42202 37.1922 0.737636Z" fill="#FDAD8D"/>
<path d="M53.5823 17.8876C53.8967 18.9032 53.8791 19.9926 53.5322 20.9976C53.1875 21.9959 52.6771 22.9289 52.0223 23.7576C51.1849 25.0164 50.0196 26.0226 48.6522 26.6676C47.9758 27.0344 47.1989 27.1728 46.4373 27.0621C45.6758 26.9515 44.9704 26.5977 44.4263 26.0536C43.8821 25.5095 43.5284 24.8041 43.4177 24.0425C43.3071 23.281 43.4454 22.5041 43.8122 21.8276C45.0875 19.4454 47.2391 17.6524 49.8122 16.8276C50.9422 16.5676 52.2923 16.2476 53.6023 17.9076" fill="#FDAD8D"/>
<path d="M45.0322 3.46759C45.9243 3.52874 46.7721 3.87913 47.4471 4.46564C48.122 5.05215 48.5872 5.84277 48.7723 6.71759C49.0947 8.25898 48.9769 9.86001 48.4322 11.3376C48.0933 12.4766 47.5733 13.5537 46.8923 14.5276C46.1959 15.4973 45.2535 16.2636 44.1622 16.7476C43.4462 17.0814 42.6353 17.1522 41.8722 16.9476C41.3005 16.6923 40.798 16.3042 40.4066 15.8154C40.0152 15.3266 39.7463 14.7513 39.6222 14.1376C38.9213 11.7712 39.1428 9.22716 40.2423 7.01758C40.6884 6.06597 41.3409 5.22568 42.1522 4.55762C42.968 3.89044 43.9792 3.5077 45.0322 3.46759Z" fill="#FDAD8D"/>
</svg>
