<svg width="23" height="30" viewBox="0 0 23 30" fill="none" xmlns="http://www.w3.org/2000/svg">
<path d="M20.5729 19.895C20.9776 19.5107 21.2998 19.048 21.5202 18.5352C21.7403 18.0223 21.854 17.4701 21.854 16.9119C21.854 16.3538 21.7403 15.8015 21.5202 15.2887C21.2998 14.7759 20.9776 14.3132 20.5729 13.9289C19.7446 13.1426 18.6459 12.7042 17.5037 12.7042C16.3615 12.7042 15.2629 13.1426 14.4345 13.9289L11.3545 17.0089L8.27446 13.9289C7.44601 13.1426 6.3474 12.7042 5.20523 12.7042C4.06305 12.7042 2.96444 13.1426 2.136 13.9289C1.73127 14.3132 1.40901 14.7759 1.18878 15.2887C0.968553 15.8015 0.85498 16.3538 0.85498 16.9119C0.85498 17.4701 0.968553 18.0223 1.18878 18.5352C1.40901 19.048 1.73127 19.5107 2.136 19.895L11.3545 28.8549L20.5729 19.895Z" stroke="#E78454" stroke-width="1.71" stroke-linecap="round" stroke-linejoin="round"/>
<path d="M11.3546 9.47037C13.7336 9.47037 15.6623 7.54175 15.6623 5.16267C15.6623 2.7836 13.7336 0.85498 11.3546 0.85498C8.97549 0.85498 7.04688 2.7836 7.04688 5.16267C7.04688 7.54175 8.97549 9.47037 11.3546 9.47037Z" stroke="#E78454" stroke-width="1.71" stroke-linecap="round" stroke-linejoin="round"/>
</svg>
