<svg width="30" height="30" viewBox="0 0 30 30" fill="none" xmlns="http://www.w3.org/2000/svg">
<path d="M10.5474 18.0858H19.1627" stroke="#E78454" stroke-width="1.71" stroke-linecap="round" stroke-linejoin="round"/>
<path d="M14.855 13.7781V22.3935" stroke="#E78454" stroke-width="1.71" stroke-linecap="round" stroke-linejoin="round"/>
<path d="M26.7011 7.31653H3.00883C1.81929 7.31653 0.85498 8.28085 0.85498 9.47037V26.7011C0.85498 27.8907 1.81929 28.855 3.00883 28.855H26.7011C27.8907 28.855 28.855 27.8907 28.855 26.7011V9.47037C28.855 8.28085 27.8907 7.31653 26.7011 7.31653Z" stroke="#E78454" stroke-width="1.71" stroke-linecap="round" stroke-linejoin="round"/>
<path d="M21.3166 7.31652V3.00883C21.3166 2.43758 21.0897 1.88975 20.6858 1.48583C20.2819 1.0819 19.734 0.85498 19.1628 0.85498H10.5474C9.97616 0.85498 9.42833 1.0819 9.02439 1.48583C8.62048 1.88975 8.39355 2.43758 8.39355 3.00883V7.31652" stroke="#E78454" stroke-width="1.71" stroke-linecap="round" stroke-linejoin="round"/>
</svg>
