<svg width="30" height="30" viewBox="0 0 30 30" fill="none" xmlns="http://www.w3.org/2000/svg">
<path d="M19.7125 10.5363C22.1418 10.5363 24.4715 11.5013 26.1891 13.219C27.9068 14.9367 28.8718 17.2664 28.8718 19.6956C28.8776 21.4986 28.3447 23.2621 27.3417 24.7601L28.8718 28.8549L23.721 27.9282C22.4823 28.5323 21.1233 28.8491 19.7451 28.8549C18.367 28.8607 17.0053 28.5553 15.7615 27.9618C14.5177 27.3683 13.4239 26.5015 12.5616 25.4265C11.6993 24.3515 11.0906 23.0957 10.7811 21.7527C10.4716 20.4098 10.4691 19.0143 10.7739 17.6702C11.0786 16.3262 11.6827 15.0682 12.5412 13.9901C13.3997 12.9119 14.4904 12.0415 15.7321 11.4435C16.9738 10.8455 18.3344 10.5354 19.7125 10.5363Z" stroke="#E78454" stroke-width="1.71" stroke-linecap="round" stroke-linejoin="round"/>
<path d="M21.0271 5.17005C19.5758 3.32325 17.5847 1.97496 15.3311 1.31288C13.0775 0.650813 10.6735 0.707919 8.4539 1.47625C6.23428 2.24458 4.30949 3.68589 2.94747 5.59952C1.58546 7.51313 0.854035 9.80385 0.855031 12.1527C0.848352 14.3854 1.50875 16.5692 2.75154 18.4241L0.855031 23.4671L5.42391 22.6481" stroke="#E78454" stroke-width="1.71" stroke-linecap="round" stroke-linejoin="round"/>
</svg>
