<svg width="31" height="23" viewBox="0 0 31 23" fill="none" xmlns="http://www.w3.org/2000/svg">
<path d="M2.75802 0.85498H27.7859C27.7859 0.85498 29.6889 0.85498 29.6889 2.75802V19.9519C29.6889 19.9519 29.6889 21.855 27.7859 21.855H2.75802C2.75802 21.855 0.85498 21.855 0.85498 19.9519V2.75802C0.85498 2.75802 0.854981 0.85498 2.75802 0.85498Z" stroke="#E78454" stroke-width="1.71" stroke-linecap="round" stroke-linejoin="round"/>
<path d="M20.5056 8.86951H24.9124" stroke="#E78454" stroke-width="1.71" stroke-linecap="round" stroke-linejoin="round"/>
<path d="M20.5056 13.2369H24.9124" stroke="#E78454" stroke-width="1.71" stroke-linecap="round" stroke-linejoin="round"/>
<path d="M7.5249 9.59766C7.5249 11.6076 9.15426 13.237 11.1642 13.237C11.6723 13.237 12.1561 13.1328 12.5954 12.9447C13.8938 12.3888 14.8035 11.0995 14.8035 9.59766C14.8035 7.58774 13.1741 5.95837 11.1642 5.95837C9.15426 5.95837 7.5249 7.58774 7.5249 9.59766Z" stroke="#E78454" stroke-width="1.71" stroke-linecap="round" stroke-linejoin="round"/>
<path d="M5.63232 16.8407C6.2106 15.7408 7.02334 14.8318 7.99241 14.201C8.96147 13.5702 10.0543 13.2389 11.1658 13.2389C12.2773 13.2389 13.3701 13.5702 14.3391 14.201C15.3082 14.8318 16.1209 15.7408 16.6992 16.8407" stroke="#E78454" stroke-width="1.71" stroke-linecap="round" stroke-linejoin="round"/>
</svg>
