<svg width="305" height="361" viewBox="0 0 305 361" fill="none" xmlns="http://www.w3.org/2000/svg">
<path d="M295 120.09H10C4.47715 120.09 0 124.567 0 130.09V350.09C0 355.613 4.47716 360.09 10 360.09H295C300.523 360.09 305 355.613 305 350.09V130.09C305 124.567 300.523 120.09 295 120.09Z" fill="#EAAC8E"/>
<path d="M180.46 66.2901C181.27 56.3501 189.18 50.0801 191.97 41.0001C194.04 31.5601 178.64 25.4601 172.61 19.7801C159.61 4.03009 125.03 7.31009 109.86 20.6801C105.39 19.3801 99.35 30.3001 95.97 33.2401C87.89 37.3601 82.6 51.7001 91.18 57.3801C100.18 61.5501 101.42 80.3801 111.49 73.0001C112.62 75.4401 116.12 76.5001 115.62 79.6801C113.53 89.3001 100.05 97.0101 106.02 107.92C95.85 110.76 93.92 129.09 105.44 126.04C106.544 127.075 107.995 127.66 109.509 127.68C111.022 127.7 112.488 127.155 113.62 126.15C115.15 129.15 119.08 127.51 121.4 126.42C125.19 124.98 130.56 122.76 129.4 117.74H154.14C153.14 122.87 159.43 124.35 163.04 125.89C165.37 126.89 168.58 128.71 170.23 125.72C172.53 127.84 176.41 125.79 178.35 123.99C187.49 129.39 189.62 112.63 181.55 108.37C186.81 95.8701 170.23 88.9201 168.65 77.7901C168.314 77.0166 168.206 76.1629 168.34 75.3301C168.656 74.0657 169.213 72.8741 169.98 71.8201C170.24 71.0508 170.695 70.3618 171.3 69.8201C171.569 69.4775 171.882 69.1716 172.23 68.9101C172.665 68.5871 173.179 68.3877 173.717 68.3331C174.256 68.2785 174.799 68.3708 175.29 68.6001C177.27 68.4301 179.29 68.3001 180.46 66.2901Z" fill="#FCCAA4"/>
<path d="M167.99 101.15C163.08 110.46 156.92 102.85 154.19 120.03C157.19 115.25 130.47 118.76 129.53 117.74C127.89 111.65 121.69 109 117.37 106.4C117.86 104.15 115.44 101.32 118.68 99.5401C121.32 97.4401 128.46 100.54 128.01 95.3001C119.27 78.1001 143.73 92.0501 151.52 86.5201C154.85 85.2301 160.13 84.4101 161.52 88.7201C162.42 90.9801 159.27 94.0901 161.61 95.7701C165.55 95.8201 168.68 96.2101 167.99 101.15Z" fill="#FDF0DC"/>
<path d="M151.18 70.9701C148.07 72.8101 143.75 69.7801 142.33 66.8901C141.26 63.5201 137.28 76.5401 131.74 72.7501C134.23 68.7501 137.27 64.2001 135.74 59.0501C140.92 60.8401 140.22 65.4301 145.31 58.0501C145.88 62.7901 152.01 66.5501 151.18 70.9701Z" fill="#FDF0DC"/>
<path d="M153.35 73.3301C150.78 70.7401 142.68 73.2501 141.89 66.4101C139.97 69.8801 136.99 73.5901 132.25 73.7001C128.77 97.4401 159.59 98.2001 153.35 73.3301Z" fill="#FDAD8D"/>
<path d="M153.83 71.2601C147.67 73.6701 140.67 68.1901 141.59 61.6201C141.119 61.7203 140.631 61.6997 140.17 61.5601C140.599 62.8908 140.728 64.2998 140.549 65.6864C140.37 67.0729 139.887 68.4028 139.134 69.5808C138.381 70.7589 137.377 71.756 136.194 72.501C135.011 73.2459 133.678 73.7203 132.29 73.8901C132.171 73.8901 132.056 73.9375 131.972 74.0219C131.887 74.1063 131.84 74.2207 131.84 74.3401C131.84 74.4594 131.887 74.5739 131.972 74.6583C132.056 74.7427 132.171 74.7901 132.29 74.7901C135.775 74.9371 139.205 73.8775 142 71.7901C143.708 73.2324 145.862 74.0409 148.098 74.0792C150.333 74.1174 152.513 73.3831 154.27 72.0001C154.62 71.7301 154.24 71.1101 153.83 71.2601Z" fill="#4F2D27"/>
<path d="M109.78 19.7401C108.08 18.5901 106.01 19.3301 104.57 20.5601C102.88 22.0101 102.25 24.2501 101.37 26.2101C99.59 30.2101 96 32.7801 92.69 35.4401C89.38 38.1001 86.2099 41.1901 85.3599 45.3401C84.4699 49.6701 86.76 53.6401 89.62 56.7001C92.48 59.7601 96.31 62.2101 98.49 65.9701C99.66 67.9701 100.11 70.3301 101.2 72.4001C101.629 73.3175 102.248 74.1338 103.015 74.7956C103.782 75.4574 104.68 75.9496 105.65 76.2401C110.16 77.2401 113.53 72.3301 115.15 68.8201C117.008 64.8306 117.648 60.3816 116.99 56.0301C115.55 46.5901 107.44 38.1601 110.05 28.2001C110.327 27.1458 110.751 26.1358 111.31 25.2001C111.347 25.1377 111.371 25.0687 111.381 24.997C111.391 24.9253 111.387 24.8523 111.369 24.7822C111.351 24.7121 111.319 24.6463 111.275 24.5884C111.232 24.5306 111.177 24.4819 111.115 24.4451C111.053 24.4083 110.984 24.3842 110.912 24.3741C110.84 24.364 110.767 24.3681 110.697 24.3862C110.627 24.4043 110.561 24.4361 110.503 24.4796C110.445 24.5232 110.397 24.5777 110.36 24.6401C107.94 28.2401 107.84 32.7701 108.8 36.8801C109.89 41.4901 112.25 45.6401 113.95 50.0401C115.57 54.2301 116.42 58.6001 115.47 63.0401C115.046 65.0649 114.318 67.0137 113.31 68.8201C112.395 70.6467 111.091 72.2509 109.49 73.5201C107.92 74.6201 106.06 74.9301 104.49 73.6701C102.92 72.4101 102.13 70.2701 101.43 68.3501C100.735 66.3425 99.6965 64.4713 98.3599 62.8201C97.0133 61.285 95.5488 59.8573 93.98 58.5501C90.98 55.9701 87.55 53.0601 86.65 49.0301C85.75 45.0001 88.23 41.2501 91.07 38.5601C93.91 35.8701 97.61 33.6501 100.24 30.5601C101.511 28.9684 102.523 27.1866 103.24 25.2801C103.99 23.4601 104.9 21.4701 106.85 20.6901C107.667 20.3442 108.583 20.3157 109.42 20.6101C109.97 20.8201 110.24 20.0101 109.8 19.7101L109.78 19.7401Z" fill="#4F2D27"/>
<path d="M111 73.3401C111.154 74.2218 111.522 75.0525 112.07 75.7601C112.608 76.5228 113.218 77.2326 113.89 77.8801C115.304 79.168 116.808 80.3543 118.39 81.4301C119.993 82.5137 121.492 83.7422 122.87 85.1001C123.536 85.782 124.123 86.5368 124.62 87.3501C125.057 88.1718 125.435 89.024 125.75 89.9001C125.97 90.4201 126.87 90.1601 126.82 89.6101C126.469 87.7818 125.585 86.098 124.28 84.7701C122.963 83.3315 121.491 82.0436 119.89 80.9301C118.33 79.7901 116.73 78.7101 115.29 77.4201C114.577 76.8018 113.908 76.1334 113.29 75.4201C112.69 74.6901 112.29 73.7901 111.62 73.1001C111.565 73.0509 111.498 73.0182 111.425 73.0059C111.352 72.9935 111.278 73.0019 111.21 73.0301C111.142 73.0584 111.083 73.1053 111.041 73.1655C110.998 73.2256 110.974 73.2966 110.97 73.3701L111 73.3401Z" fill="#4F2D27"/>
<path d="M124.45 82.4201C126.15 84.7817 128.665 86.4282 131.51 87.0401C132.21 87.1901 132.51 86.1201 131.8 85.9501C129.182 85.3404 126.812 83.9447 125.01 81.9501C124.74 81.6501 124.21 82.0401 124.45 82.3801V82.4201Z" fill="#4F2D27"/>
<path d="M123.92 68.3901C124.383 70.0245 125.411 71.4418 126.82 72.3901C128.279 73.4726 130.01 74.1271 131.82 74.2801C135.71 74.6301 139.63 72.9301 141.08 69.1201C141.833 66.8862 141.998 64.4963 141.56 62.1801C141.42 61.3001 140.18 61.6201 140.11 62.3801C139.87 64.6201 140.06 66.9701 139.11 69.0701C138.675 69.964 138.052 70.7537 137.284 71.3853C136.516 72.0168 135.621 72.4755 134.66 72.7301C132.616 73.3027 130.428 73.0477 128.57 72.0201C126.972 70.9802 125.61 69.6177 124.57 68.0201C124.33 67.7201 123.91 68.0201 123.98 68.3701L123.92 68.3901Z" fill="#4F2D27"/>
<path d="M134.18 42.2901C134.921 42.0523 135.676 41.8586 136.44 41.7101C137.179 41.5422 137.927 41.4187 138.68 41.3401C140.215 41.1994 141.762 41.2905 143.27 41.6101C144 41.7701 144.27 40.6101 143.58 40.4901C141.939 40.1316 140.252 40.0337 138.58 40.2001C137.751 40.2746 136.931 40.4252 136.13 40.6501C135.35 40.9124 134.597 41.2472 133.88 41.6501C133.51 41.8301 133.77 42.4601 134.16 42.3201L134.18 42.2901Z" fill="#4F2D27"/>
<path d="M164.68 15.4901C165.473 15.1025 166.369 14.976 167.238 15.1287C168.108 15.2814 168.906 15.7055 169.52 16.3401C171.08 17.7901 171.95 19.8001 173.28 21.4401C175.83 24.6101 179.63 26.3501 183.13 28.2301C186.4 30.0001 189.9 32.2301 191.48 35.7101C193.36 39.8901 191.13 44.1901 188.66 47.5701C186.19 50.9501 183.11 54.0501 181.81 58.1501C181.12 60.3301 181.1 62.6801 180.3 64.8201C179.69 66.4301 178.42 68.0701 176.57 68.1501C174.57 68.2401 172.7 66.8601 171.3 65.5401C169.015 63.3948 167.259 60.748 166.17 57.8083C165.082 54.8686 164.692 51.7164 165.03 48.6001C165.5 43.7201 167.21 39.0601 167.9 34.2201C168.49 30.1201 168.38 25.6401 166.22 21.9701C165.712 21.1232 165.108 20.3379 164.42 19.6301C163.91 19.1201 163.17 19.8801 163.63 20.4101C166.63 23.8301 167.22 28.6401 166.75 33.0001C166.19 38.1301 164.34 43.0001 163.75 48.1301C163.237 52.5582 164.022 57.0399 166.01 61.0301C166.961 62.9299 168.188 64.6788 169.65 66.2201C171.067 67.885 172.935 69.1041 175.03 69.7301C176.045 69.977 177.11 69.9252 178.096 69.581C179.083 69.2368 179.949 68.6149 180.59 67.7901C181.854 65.9774 182.617 63.8625 182.8 61.6601C183.112 59.3873 183.863 57.1968 185.01 55.2101C186.227 53.3166 187.545 51.4906 188.96 49.7401C191.64 46.2301 194.17 41.9401 193.35 37.3401C192.65 33.3401 189.35 30.4201 186.13 28.3401C182.57 26.0801 178.44 24.6201 175.37 21.6401C172.61 18.9601 171.09 13.5301 166.43 13.6401C165.555 13.6547 164.721 14.014 164.11 14.6401C164.028 14.7243 163.978 14.8355 163.971 14.9532C163.964 15.0709 164 15.1872 164.071 15.2807C164.143 15.3743 164.246 15.4389 164.362 15.4627C164.477 15.4864 164.597 15.4677 164.7 15.4101L164.68 15.4901Z" fill="#4F2D27"/>
<path d="M171.95 67.5101C171.723 67.929 171.526 68.3634 171.36 68.8101C171.16 69.2501 170.95 69.6801 170.71 70.1001C170.26 70.9048 169.748 71.6737 169.18 72.4001C167.984 73.8656 166.712 75.2675 165.37 76.6001C164.018 77.9622 162.815 79.464 161.78 81.0801C160.86 82.5701 159.88 84.5801 160.03 86.3901C160.08 87.0001 161.03 87.2201 161.16 86.5401C161.321 85.6036 161.541 84.6784 161.82 83.7701C162.184 82.8684 162.647 82.0098 163.2 81.2101C164.301 79.6558 165.54 78.2034 166.9 76.8701C168.203 75.5655 169.423 74.1794 170.55 72.7201C171.094 71.9892 171.563 71.2052 171.95 70.3801C172.401 69.5577 172.645 68.6378 172.66 67.7001C172.66 67.6161 172.633 67.5344 172.582 67.4677C172.531 67.401 172.459 67.3531 172.378 67.3314C172.297 67.3097 172.211 67.3155 172.134 67.3478C172.056 67.3801 171.992 67.4372 171.95 67.5101Z" fill="#4F2D27"/>
<path d="M160.42 78.6901C159.706 79.81 158.834 80.8205 157.83 81.6901C156.817 82.5588 155.673 83.2609 154.44 83.7701C153.86 84.0201 154.28 85.0401 154.87 84.7701C157.579 83.675 159.78 81.606 161.04 78.9701C161.078 78.8887 161.084 78.7961 161.057 78.7105C161.03 78.625 160.972 78.5525 160.894 78.5075C160.816 78.4624 160.725 78.448 160.637 78.467C160.549 78.4859 160.472 78.537 160.42 78.6101V78.6901Z" fill="#4F2D27"/>
<path d="M158.39 64.8801C157.45 66.6801 156.63 68.4201 154.97 69.6901C153.306 70.9725 151.208 71.557 149.12 71.3201C148.133 71.2254 147.178 70.9159 146.323 70.4132C145.468 69.9105 144.733 69.2268 144.17 68.4101C142.91 66.5101 142.66 64.2301 142.03 62.0901C141.98 61.92 141.871 61.7734 141.722 61.6771C141.573 61.5809 141.394 61.5412 141.219 61.5654C141.043 61.5897 140.882 61.6761 140.765 61.8091C140.648 61.9421 140.582 62.1128 140.58 62.2901C140.68 66.1601 142.07 70.5101 145.94 72.1101C147.681 72.7639 149.568 72.9306 151.397 72.5923C153.226 72.254 154.928 71.4235 156.32 70.1901C157.09 69.5562 157.727 68.7769 158.195 67.8967C158.664 67.0165 158.954 66.0526 159.05 65.0601C159.046 64.9844 159.018 64.9118 158.971 64.8527C158.923 64.7936 158.858 64.751 158.785 64.7311C158.712 64.7111 158.634 64.7148 158.563 64.7415C158.492 64.7683 158.432 64.8168 158.39 64.8801Z" fill="#4F2D27"/>
<path d="M150.45 53.1501C150.021 55.1232 148.827 56.8456 147.13 57.9401C146.109 58.4689 145.169 59.1425 144.34 59.9401C143.84 60.5401 143.54 61.2901 143.07 61.9401C142.867 62.2808 142.571 62.5561 142.217 62.7334C141.862 62.9107 141.464 62.9824 141.07 62.9401L139.76 63.0201C139.389 62.8966 139.048 62.6954 138.76 62.4301C138.18 61.9001 137.76 61.2101 137.16 60.7101C136.2 60.0972 135.16 59.6194 134.07 59.2901C133.143 58.914 132.3 58.3581 131.59 57.6544C130.879 56.9506 130.315 56.1131 129.93 55.1901C129.559 54.2613 129.422 53.2554 129.532 52.2613C129.642 51.2672 129.995 50.3154 130.56 49.4901C131.582 48.153 133.039 47.2155 134.68 46.8401C136.149 46.4832 137.658 46.3185 139.17 46.3501C140.854 46.0483 142.56 45.8911 144.27 45.8801C145.927 45.9379 147.513 46.5668 148.76 47.6601C149.474 48.364 150.002 49.234 150.297 50.1921C150.592 51.1503 150.644 52.1666 150.45 53.1501Z" fill="#4F2D27"/>
<path d="M110.56 19.9601C111.29 19.4001 112.12 18.9601 112.88 18.3801C113.64 17.8001 114.33 17.3801 115.08 16.9301C116.674 15.9392 118.346 15.0797 120.08 14.3601C123.506 12.9455 127.148 12.1238 130.85 11.9301C131.65 11.9301 131.65 10.6401 130.85 10.6901C127.01 10.8814 123.232 11.7304 119.68 13.2001C117.941 13.9203 116.268 14.7902 114.68 15.8001C113.9 16.3001 113.15 16.8001 112.42 17.4101C111.649 18.0663 110.927 18.7782 110.26 19.5401C110.06 19.7501 110.34 20.1601 110.59 19.9601H110.56Z" fill="#4F2D27"/>
<path d="M163.89 14.1201C162.314 12.5325 160.395 11.3282 158.28 10.6001C156.2 9.73022 154.015 9.13845 151.78 8.8401C149.456 8.55256 147.104 8.55256 144.78 8.8401C142.39 9.1101 139.84 9.4301 137.55 8.4901C136.481 8.02231 135.566 7.26123 134.911 6.29496C134.256 5.32868 133.888 4.19672 133.85 3.0301C133.85 2.87495 133.788 2.72615 133.679 2.61644C133.569 2.50673 133.42 2.4451 133.265 2.4451C133.11 2.4451 132.961 2.50673 132.851 2.61644C132.742 2.72615 132.68 2.87495 132.68 3.0301C132.642 4.06957 132.845 5.10375 133.271 6.05238C133.698 7.00101 134.337 7.83859 135.14 8.5001C137.014 9.91123 139.342 10.5839 141.68 10.3901C144.24 10.3101 146.75 9.8001 149.32 9.8901C151.663 9.9848 153.98 10.4159 156.2 11.1701C157.449 11.5912 158.662 12.1094 159.83 12.7201C161.04 13.3601 162.15 14.1701 163.39 14.7201C163.474 14.7767 163.576 14.7993 163.677 14.7833C163.777 14.7673 163.867 14.7139 163.929 14.6339C163.991 14.5539 164.021 14.4532 164.012 14.3523C164.003 14.2514 163.956 14.1577 163.88 14.0901L163.89 14.1201Z" fill="#4F2D27"/>
<path d="M134.17 8.8601C132.885 7.86968 131.818 6.62508 131.035 5.20394C130.252 3.7828 129.77 2.2156 129.62 0.600094C129.53 -0.179906 128.36 -0.219906 128.36 0.600094C128.41 2.43798 128.933 4.23188 129.879 5.80844C130.825 7.38501 132.162 8.69095 133.76 9.60009C134.22 9.87009 134.57 9.21009 134.17 8.90009V8.8601Z" fill="#4F2D27"/>
<path d="M132.01 9.25009C130.035 9.12625 128.128 8.48475 126.48 7.39009C126.338 7.30895 126.169 7.28655 126.01 7.32762C125.852 7.3687 125.715 7.47003 125.63 7.61009C125.589 7.68091 125.562 7.75916 125.552 7.84033C125.541 7.92151 125.547 8.00398 125.568 8.08301C125.589 8.16204 125.626 8.23604 125.676 8.30076C125.726 8.36548 125.789 8.41963 125.86 8.46009C127.667 9.68926 129.829 10.2869 132.01 10.1601C132.119 10.1439 132.219 10.089 132.291 10.0055C132.363 9.92198 132.402 9.81536 132.402 9.70508C132.402 9.59481 132.363 9.4882 132.291 9.40468C132.219 9.32117 132.119 9.2663 132.01 9.25009Z" fill="#4F2D27"/>
<path d="M117.82 107.48C117.05 106.065 115.927 104.873 114.56 104.02C113.889 103.609 113.175 103.274 112.43 103.02C111.662 102.695 110.834 102.538 110 102.56C109.852 102.565 109.71 102.622 109.599 102.722C109.489 102.821 109.417 102.956 109.397 103.103C109.377 103.251 109.409 103.4 109.488 103.526C109.567 103.651 109.688 103.745 109.83 103.79C110.51 104.01 111.23 104.06 111.91 104.28C112.588 104.499 113.239 104.794 113.85 105.16C115.085 105.877 116.166 106.833 117.03 107.97C117.095 108.07 117.196 108.14 117.311 108.167C117.427 108.194 117.549 108.175 117.651 108.114C117.753 108.054 117.827 107.956 117.859 107.841C117.89 107.727 117.877 107.605 117.82 107.5V107.48Z" fill="#4F2D27"/>
<path d="M111.8 108.03C110.698 107.679 109.546 107.51 108.39 107.53C107.221 107.576 106.065 107.795 104.96 108.18C102.778 108.929 100.852 110.277 99.4 112.07C96.66 115.48 95.4 121.13 98.29 124.86C99.0002 125.86 100.032 126.587 101.213 126.918C102.394 127.249 103.653 127.165 104.78 126.68C105.43 126.36 104.97 125.31 104.29 125.51C103.443 125.744 102.545 125.721 101.71 125.446C100.876 125.17 100.141 124.653 99.6 123.96C98.4541 122.334 97.9877 120.325 98.3 118.36C98.5194 116.427 99.2478 114.586 100.411 113.026C101.574 111.466 103.13 110.242 104.92 109.48C107.041 108.63 109.352 108.368 111.61 108.72C111.698 108.734 111.787 108.715 111.862 108.667C111.936 108.619 111.991 108.546 112.014 108.46C112.038 108.375 112.029 108.284 111.989 108.204C111.95 108.125 111.882 108.063 111.8 108.03Z" fill="#4F2D27"/>
<path d="M106.4 119.56C105.63 120.054 105.041 120.784 104.72 121.64C104.406 122.529 104.344 123.488 104.54 124.41C104.753 125.338 105.227 126.186 105.905 126.853C106.584 127.521 107.439 127.982 108.37 128.18C109.434 128.463 110.564 128.35 111.55 127.86C111.69 127.77 111.795 127.633 111.844 127.474C111.894 127.314 111.886 127.142 111.821 126.988C111.757 126.834 111.64 126.708 111.492 126.632C111.343 126.555 111.173 126.533 111.01 126.57C110.195 126.852 109.311 126.863 108.489 126.602C107.668 126.341 106.952 125.821 106.45 125.12C105.984 124.371 105.793 123.484 105.91 122.61C106 121.714 106.347 120.863 106.91 120.16C107.17 119.85 106.83 119.29 106.45 119.56H106.4Z" fill="#4F2D27"/>
<path d="M113.94 121.22C113.387 121.719 112.956 122.338 112.68 123.03C112.429 123.771 112.391 124.568 112.57 125.33C112.749 126.092 113.127 126.793 113.664 127.362C114.201 127.931 114.88 128.348 115.63 128.57C116.387 128.824 117.197 128.876 117.98 128.72C118.867 128.458 119.71 128.063 120.48 127.55C122.16 126.62 124.11 126.44 125.87 125.7C126.73 125.386 127.484 124.837 128.048 124.116C128.612 123.395 128.962 122.53 129.06 121.62C129.06 121.04 128.13 121.04 128.16 121.62C128.25 123.74 126.07 124.52 124.38 124.88C123.38 125.09 122.38 125.17 121.44 125.41C120.516 125.688 119.634 126.092 118.82 126.61C118.181 127.042 117.41 127.232 116.643 127.146C115.877 127.059 115.167 126.703 114.64 126.14C114.163 125.524 113.896 124.771 113.878 123.992C113.86 123.212 114.092 122.448 114.54 121.81C114.616 121.735 114.658 121.632 114.658 121.525C114.658 121.418 114.616 121.316 114.54 121.24C114.464 121.165 114.362 121.122 114.255 121.122C114.148 121.122 114.046 121.165 113.97 121.24L113.94 121.22Z" fill="#4F2D27"/>
<path d="M129.61 119.53C129.702 118.764 129.728 117.991 129.69 117.22C129.604 116.485 129.44 115.761 129.2 115.06C128.693 113.62 127.916 112.289 126.91 111.14C125.009 108.887 122.311 107.454 119.38 107.14C118.59 107.08 118.45 108.3 119.2 108.49C121.707 109.028 123.991 110.315 125.75 112.18C126.608 113.178 127.285 114.319 127.75 115.55C127.978 116.155 128.172 116.773 128.33 117.4C128.552 118.092 128.696 118.806 128.76 119.53C128.76 119.641 128.804 119.748 128.883 119.827C128.962 119.906 129.069 119.95 129.18 119.95C129.291 119.95 129.398 119.906 129.477 119.827C129.556 119.748 129.6 119.641 129.6 119.53H129.61Z" fill="#4F2D27"/>
<path d="M113.98 81.6801C112.21 85.9601 109.16 89.5101 106.74 93.4001C105.493 95.309 104.552 97.4009 103.95 99.6001C103.43 101.68 103.17 104.25 104.13 106.24C104.203 106.365 104.315 106.463 104.449 106.518C104.583 106.573 104.731 106.582 104.871 106.545C105.011 106.507 105.135 106.425 105.223 106.31C105.311 106.195 105.359 106.055 105.36 105.91C105.188 104.852 105.091 103.782 105.07 102.71C105.107 101.619 105.282 100.537 105.59 99.4901C106.284 97.3327 107.295 95.2904 108.59 93.4301C109.79 91.5701 111.1 89.7901 112.27 87.9101C113.478 86.0798 114.349 84.0476 114.84 81.9101C114.854 81.8073 114.83 81.703 114.773 81.6164C114.716 81.5298 114.63 81.4666 114.53 81.4386C114.43 81.4106 114.324 81.4197 114.23 81.464C114.136 81.5084 114.062 81.5851 114.02 81.6801H113.98Z" fill="#4F2D27"/>
<path d="M112.68 80.5501C112.446 81.1301 112.168 81.6917 111.85 82.2301C111.545 82.7579 111.211 83.2687 110.85 83.7601C110.126 84.729 109.24 85.5647 108.23 86.2301C107.64 86.6301 108.23 87.5901 108.8 87.2301C109.955 86.4918 110.956 85.5377 111.75 84.4201C112.15 83.8843 112.485 83.3037 112.75 82.6901C112.999 82.0448 113.177 81.3741 113.28 80.6901C113.297 80.6167 113.285 80.5394 113.247 80.4747C113.208 80.41 113.146 80.3629 113.073 80.3433C113 80.3238 112.922 80.3335 112.856 80.3702C112.791 80.4069 112.742 80.4679 112.72 80.5401L112.68 80.5501Z" fill="#4F2D27"/>
<path d="M131.31 74.6301C131.47 76.4501 131.79 78.2701 132 80.1001C132.145 81.7583 132.415 83.403 132.81 85.0201C133.62 87.9401 135.22 90.6301 138.13 91.7901C141.04 92.9501 144.45 92.5001 147.3 91.4801C150.15 90.4601 152.98 88.4201 154.05 85.3701C154.575 83.4156 154.714 81.3777 154.46 79.3701C154.34 77.1001 154.25 74.8401 154.03 72.5801C153.97 71.9701 153.03 71.9401 153.03 72.5801C153.03 74.3601 153.13 76.1401 153.22 77.9101C153.372 79.609 153.408 81.3162 153.33 83.0201C153.05 86.2401 150.84 88.5901 147.99 89.8901C145.322 91.2322 142.252 91.542 139.37 90.7601C136.66 89.8601 135.11 87.3701 134.37 84.7601C133.941 83.0806 133.63 81.3731 133.44 79.6501C133.319 77.8203 132.8 76.039 131.92 74.4301C131.75 74.1701 131.27 74.2401 131.3 74.6001L131.31 74.6301Z" fill="#4F2D27"/>
<path d="M141.4 69.2501C141.62 70.7901 141.93 72.2501 142.13 73.8401C142.316 75.3598 142.413 76.8891 142.42 78.4201C142.438 78.557 142.506 78.6826 142.61 78.7736C142.713 78.8646 142.847 78.9148 142.985 78.9148C143.123 78.9148 143.257 78.8646 143.36 78.7736C143.464 78.6826 143.532 78.557 143.55 78.4201C143.632 75.2141 143.081 72.0234 141.93 69.0301C141.78 68.7001 141.36 68.9601 141.4 69.2501Z" fill="#4F2D27"/>
<path d="M126.68 42.6601C127.24 48.0701 120.07 48.7201 119.68 43.3001C119.29 37.8801 126.24 37.2301 126.68 42.6601Z" fill="#4F2D27"/>
<path d="M159.4 39.6201C159.96 45.0301 152.79 45.6901 152.4 40.2601C152.01 34.8301 158.97 34.2001 159.4 39.6201Z" fill="#4F2D27"/>
<path d="M117.9 36.6801C118.15 36.6285 118.381 36.5111 118.57 36.3401L119.27 35.8101C119.336 35.7513 119.406 35.6978 119.48 35.6501L119.78 35.4301C120 35.2768 120.22 35.1368 120.44 35.0101L121.1 34.6601L121.44 34.5001L121.63 34.4201C121.87 34.3201 122.11 34.2301 122.36 34.1501C122.658 34.0757 122.949 33.9753 123.23 33.8501C123.384 33.7567 123.504 33.6155 123.571 33.448C123.638 33.2805 123.648 33.0957 123.601 32.9216C123.554 32.7476 123.451 32.5938 123.308 32.4834C123.165 32.3731 122.99 32.3122 122.81 32.3101C122.173 32.3969 121.557 32.5967 120.99 32.9001C120.5 33.1189 120.029 33.3764 119.58 33.6701C119.099 33.9865 118.644 34.341 118.22 34.7301C117.732 35.1012 117.398 35.6385 117.28 36.2401C117.283 36.311 117.301 36.3805 117.333 36.4435C117.366 36.5065 117.412 36.5616 117.469 36.6046C117.525 36.6476 117.59 36.6776 117.66 36.6924C117.729 36.7072 117.801 36.7064 117.87 36.6901L117.9 36.6801Z" fill="#4F2D27"/>
<path d="M159.03 32.6801C159.062 32.5451 159.057 32.4038 159.015 32.2716C158.972 32.1394 158.895 32.0213 158.79 31.9301C158.596 31.7456 158.373 31.5936 158.13 31.4801C157.691 31.2322 157.229 31.0279 156.75 30.8701C156.323 30.7322 155.889 30.6187 155.45 30.5301C154.939 30.404 154.416 30.3369 153.89 30.3301C153.682 30.3329 153.482 30.4101 153.326 30.5477C153.17 30.6853 153.069 30.8741 153.04 31.0801C153.011 31.2894 153.061 31.5019 153.179 31.6772C153.297 31.8524 153.475 31.978 153.68 32.0301C153.95 32.0301 154.22 32.0901 154.49 32.1201C154.56 32.1201 154.61 32.1201 154.49 32.1201H154.66H154.99C155.446 32.1974 155.896 32.3009 156.34 32.4301C156.77 32.5601 157.2 32.6801 157.62 32.8301C158.04 32.9801 158.79 33.2001 159.03 32.6101V32.6801Z" fill="#4F2D27"/>
<path d="M169.91 106.3C170.581 106.07 171.27 105.9 171.97 105.79C172.29 105.79 172.62 105.71 172.97 105.69C173.342 105.692 173.714 105.658 174.08 105.59C174.196 105.567 174.299 105.504 174.374 105.413C174.449 105.322 174.49 105.208 174.49 105.09C174.49 104.972 174.449 104.858 174.374 104.767C174.299 104.676 174.196 104.613 174.08 104.59C173.691 104.491 173.287 104.47 172.89 104.53C172.501 104.563 172.114 104.617 171.73 104.69C170.987 104.862 170.266 105.117 169.58 105.45C169.12 105.66 169.45 106.45 169.93 106.28L169.91 106.3Z" fill="#4F2D27"/>
<path d="M171.88 107.63C173.855 107.283 175.886 107.451 177.778 108.116C179.669 108.782 181.357 109.923 182.68 111.43C185 114.25 186.26 118.9 184.29 122.24C183.797 123.118 183.027 123.807 182.101 124.202C181.175 124.596 180.144 124.673 179.17 124.42C178.49 124.22 178.02 125.26 178.68 125.59C179.669 126.033 180.771 126.157 181.833 125.946C182.896 125.735 183.866 125.198 184.61 124.41C185.397 123.538 185.994 122.511 186.362 121.395C186.731 120.28 186.863 119.1 186.75 117.93C186.601 115.657 185.826 113.47 184.511 111.609C183.197 109.749 181.393 108.289 179.3 107.39C178.108 106.894 176.846 106.584 175.56 106.47C174.242 106.375 172.918 106.535 171.66 106.94C171.578 106.973 171.51 107.035 171.471 107.114C171.431 107.194 171.422 107.285 171.446 107.37C171.469 107.456 171.524 107.529 171.598 107.577C171.673 107.625 171.762 107.644 171.85 107.63H171.88Z" fill="#4F2D27"/>
<path d="M176.68 119.03C177.242 119.734 177.589 120.584 177.68 121.48C177.79 122.354 177.6 123.239 177.14 123.99C176.636 124.689 175.921 125.207 175.099 125.467C174.277 125.726 173.394 125.713 172.58 125.43C172.414 125.386 172.237 125.403 172.083 125.479C171.928 125.555 171.807 125.685 171.74 125.844C171.674 126.002 171.668 126.18 171.724 126.343C171.779 126.506 171.891 126.644 172.04 126.73C172.915 127.127 173.885 127.267 174.836 127.132C175.787 126.998 176.68 126.594 177.41 125.97C178.136 125.358 178.671 124.549 178.949 123.641C179.227 122.733 179.238 121.764 178.98 120.85C178.849 120.353 178.625 119.884 178.32 119.47C178 119.078 177.618 118.74 177.19 118.47C176.82 118.2 176.46 118.76 176.73 119.07L176.68 119.03Z" fill="#4F2D27"/>
<path d="M168.98 120.66C169.425 121.281 169.664 122.026 169.664 122.79C169.664 123.554 169.425 124.299 168.98 124.92C168.46 125.511 167.743 125.892 166.962 125.992C166.181 126.091 165.391 125.902 164.74 125.46C163.922 124.942 163.037 124.538 162.11 124.26C161.18 124.03 160.22 123.95 159.28 123.75C157.56 123.4 155.28 122.63 155.4 120.47C155.4 119.89 154.48 119.89 154.5 120.47C154.575 121.253 154.845 122.004 155.286 122.656C155.726 123.307 156.322 123.838 157.02 124.2C158.57 125.2 160.61 125.32 162.3 126.02C163.19 126.39 163.97 127.02 164.87 127.35C165.631 127.656 166.465 127.736 167.27 127.58C168.044 127.461 168.775 127.145 169.392 126.661C170.008 126.178 170.49 125.544 170.79 124.82C171.122 123.987 171.188 123.072 170.98 122.2C170.727 121.379 170.245 120.647 169.59 120.09C169.21 119.72 168.69 120.27 169.02 120.66H168.98Z" fill="#4F2D27"/>
<path d="M154.68 118.4C154.749 117.721 154.886 117.051 155.09 116.4C155.248 115.74 155.452 115.092 155.7 114.46C156.161 113.227 156.839 112.086 157.7 111.09C159.459 109.225 161.743 107.938 164.25 107.4C164.99 107.21 164.86 105.99 164.07 106.05C161.136 106.364 158.435 107.796 156.53 110.05C155.553 111.175 154.79 112.47 154.28 113.87C154.023 114.598 153.849 115.353 153.76 116.12C153.723 116.894 153.747 117.67 153.83 118.44C153.83 118.552 153.874 118.658 153.953 118.737C154.032 118.816 154.139 118.86 154.25 118.86C154.361 118.86 154.468 118.816 154.547 118.737C154.626 118.658 154.67 118.552 154.67 118.44L154.68 118.4Z" fill="#4F2D27"/>
<path d="M170.12 85.5801C170.94 86.3701 171.65 87.2901 172.45 88.1101C173.25 88.9301 173.94 89.6601 174.66 90.4501C176.185 92.0605 177.545 93.8193 178.72 95.7001C181.103 99.3378 182.001 103.75 181.23 108.03C181.199 108.188 181.229 108.352 181.314 108.489C181.399 108.626 181.532 108.726 181.688 108.769C181.843 108.812 182.009 108.795 182.152 108.721C182.295 108.647 182.405 108.522 182.46 108.37C184.69 101.2 180.32 94.1301 175.46 89.1801C174.73 88.4301 173.97 87.7301 173.19 87.0401C172.41 86.3501 171.48 85.7201 170.67 85.0401C170.29 84.7001 169.72 85.2501 170.1 85.6201L170.12 85.5801Z" fill="#4F2D27"/>
<path d="M82.17 123.22C81.17 123.11 39.81 123.41 39.29 123.12C37.42 116.58 30.18 109.12 32.76 102.39C37.76 99.3901 44.22 104.5 49.87 102.92C62.95 102.84 69.48 90.7701 75.08 96.3201C81.51 103.29 83.4 115.03 82.17 123.22Z" fill="#FDF0DC"/>
<path d="M89.52 123.4C88.18 128.28 81.05 129.95 78.52 125.21C78.0943 125.855 77.5042 126.376 76.8106 126.717C76.117 127.059 75.345 127.209 74.5739 127.153C73.8028 127.097 73.0606 126.837 72.4237 126.398C71.7867 125.96 71.278 125.36 70.95 124.66C62.95 127.76 62.95 114.03 69.19 111.66C79.29 109.18 81.5 108.89 75.83 98.6601C66.1 110.56 46.92 111.86 34.34 103.81C34.09 112.23 46.13 112.32 48.07 119.71C49.43 123.35 45.36 127.85 41.75 125.84C40.21 127.72 37.23 129.14 34.93 127.84C34.6205 127.777 34.3163 127.69 34.02 127.58C26.88 133.58 20.16 123.76 23.22 116.82C25.14 111.23 29.93 107.29 32.29 101.94C17.29 93.7501 24.88 74.5701 23.1 61.0201C21.6 50.0201 13.89 41.0201 4.10003 36.3401C-9.31997 22.9001 30 20.9101 40.33 48.0301L54.59 47.0301C50.99 16.7301 92.5 3.34009 81.66 22.0301C74.56 27.8201 70.25 36.7601 71.51 46.0301C72.07 56.5701 82.14 62.2101 85.69 71.3901C87.1808 75.661 87.2617 80.2977 85.9206 84.618C84.5795 88.9382 81.8873 92.7141 78.24 95.3901C78.37 106.03 92.82 112.28 89.52 123.4Z" fill="#7F5A57"/>
<path d="M76.79 89.2101C74.67 92.7601 70.41 92.8301 66.79 93.1101C62.9 98.4501 53.12 101.11 47.7 97.5101C32.87 105.67 26.59 87.4401 37.79 78.9901C37.79 67.0401 53.93 63.9901 39.79 49.3401C39.03 48.4601 40.94 48.1701 41.46 47.8901C64.46 38.8901 44.14 59.8001 59.65 66.0001C69.26 68.6401 65.75 73.4301 74.07 76.2401C77.87 78.9101 79.37 85.0301 76.79 89.2101Z" fill="#FDF0DC"/>
<path d="M68.4 91.4801C65.0686 90.0711 62.1554 87.8294 59.94 84.9701C58.0407 82.3755 56.8578 79.3267 56.51 76.1301C54.73 78.3401 52 79.6501 49.23 77.9101C49.5386 78.9764 49.7561 80.067 49.88 81.1701C50.4291 85.0237 49.9744 88.9537 48.56 92.5801C47.7995 94.2843 46.6688 95.7977 45.25 97.0101C43.9927 98.2073 42.482 99.1062 40.83 99.6401C46.68 101.2 54.65 89.6401 53.73 80.8201C56.95 88.6101 67.27 97.3901 72.28 92.5501C70.9448 92.3679 69.6399 92.0081 68.4 91.4801Z" fill="#FDAD8D"/>
<path d="M38.4 69.3201C39.6 75.0001 32.29 76.4501 31.22 70.7501C30.15 65.0501 37.34 63.6201 38.4 69.3201Z" fill="#4F2D27"/>
<path d="M63.62 64.0801C64.68 69.7801 72 68.3301 70.8 62.6501C69.6 56.9701 62.42 58.4001 63.62 64.0801Z" fill="#4F2D27"/>
<path d="M84.32 18.1601C79.51 31.4601 91.64 54.4901 77.75 60.3301C75.83 55.5501 70.28 53.3901 68.4 48.5901C65.25 37.0301 71.35 18.2501 84.32 18.1601Z" fill="#FDAD8D"/>
<path d="M26.75 51.6701C29.21 55.1901 24.94 74.4401 20.75 70.6701C7.92001 63.6701 10.91 46.1701 2.54001 35.7401C2.07001 32.2201 6.95001 33.8901 8.87001 34.3601C13.0429 35.5546 16.8573 37.7589 19.9758 40.778C23.0943 43.7971 25.4209 47.5381 26.75 51.6701Z" fill="#FDAD8D"/>
<path d="M26.36 60.8801C26.05 61.7901 25.63 62.6501 25.31 63.5601C24.99 64.4701 24.7 65.4601 24.41 66.4101C23.85 68.2301 23.34 70.0601 22.83 71.8901C21.6673 75.5005 20.9946 79.2507 20.83 83.0401C20.8294 86.3182 21.5294 89.5585 22.8833 92.5439C24.2372 95.5293 26.2136 98.1909 28.68 100.35C31.3139 102.648 34.4256 104.332 37.79 105.28C37.8675 105.302 37.9485 105.308 38.0284 105.298C38.1082 105.289 38.1854 105.263 38.2555 105.224C38.3256 105.184 38.3873 105.132 38.437 105.068C38.4866 105.005 38.5233 104.933 38.545 104.855C38.5667 104.778 38.5729 104.697 38.5632 104.617C38.5536 104.537 38.5283 104.46 38.4889 104.39C38.4494 104.319 38.3965 104.258 38.3332 104.208C38.2699 104.158 38.1975 104.122 38.12 104.1C35.1938 103.252 32.4788 101.798 30.1513 99.8322C27.8237 97.8665 25.9358 95.4331 24.61 92.6901C23.2296 89.8236 22.4892 86.6912 22.44 83.5101C22.5159 79.9799 23.0779 76.4769 24.11 73.1001C24.64 71.1001 25.24 69.1501 25.75 67.1501C26 66.1501 26.29 65.1501 26.52 64.1501C26.75 63.1501 26.84 62.1501 27.07 61.0901C27.0965 60.9946 27.084 60.8925 27.0353 60.8062C26.9865 60.72 26.9055 60.6566 26.81 60.6301C26.7145 60.6036 26.6124 60.6161 26.5262 60.6648C26.4399 60.7136 26.3765 60.7946 26.35 60.8901L26.36 60.8801Z" fill="#4F2D27"/>
<path d="M53.1 79.5101C52.7122 80.7293 52.5132 82.0007 52.51 83.2801C52.3934 85.4482 52.0276 87.5956 51.42 89.6801C50.5555 92.1285 49.0415 94.2959 47.04 95.9501C44.9203 97.8799 42.1663 98.9651 39.3 99.0001C36.41 98.8701 33.54 96.6501 33.36 93.6301C33.36 92.8901 32.15 92.8901 32.2 93.6301C32.3362 94.9636 32.843 96.2324 33.6631 97.2928C34.4831 98.3532 35.5836 99.1628 36.84 99.6301C38.3658 100.142 39.9844 100.318 41.5845 100.146C43.1847 99.973 44.7286 99.456 46.11 98.6301C48.6976 97.1704 50.8035 94.988 52.17 92.3501C53.2898 90.0012 53.9225 87.45 54.03 84.8501C54.1616 83.6246 54.1883 82.3901 54.11 81.1601C54.1005 80.5729 53.9923 79.9915 53.79 79.4401C53.7547 79.38 53.7043 79.3301 53.6438 79.2954C53.5833 79.2608 53.5147 79.2425 53.445 79.2425C53.3753 79.2425 53.3067 79.2608 53.2462 79.2954C53.1857 79.3301 53.1353 79.38 53.1 79.4401V79.5101Z" fill="#4F2D27"/>
<path d="M32.51 91.0301C32.1523 90.0717 32.0726 89.0318 32.28 88.0301C32.4844 87.0237 32.9078 86.0746 33.52 85.2501C34.83 83.4301 36.85 82.2501 38.69 81.0001C39.21 80.6601 38.69 79.8301 38.19 80.1601C36.04 81.4801 33.69 82.7301 32.19 84.8501C31.4971 85.833 31.0637 86.975 30.93 88.1701C30.87 88.7235 30.8902 89.2826 30.99 89.8301C31.1374 90.4081 31.4144 90.945 31.8 91.4001C31.8554 91.4923 31.9447 91.559 32.0488 91.5859C32.1529 91.6129 32.2634 91.5978 32.3565 91.5441C32.4496 91.4903 32.5179 91.4021 32.5466 91.2985C32.5753 91.1949 32.5622 91.0841 32.51 90.9901V91.0301Z" fill="#4F2D27"/>
<path d="M40.61 47.9401C39.12 41.7601 34.73 36.3101 29.68 32.5501C24.1646 28.427 17.4662 26.193 10.58 26.1801C7.73 26.1801 4.07999 26.3101 1.94999 28.5101C1.41764 29.0849 1.0188 29.7701 0.781976 30.5169C0.545149 31.2637 0.476182 32.0536 0.579999 32.8301C0.87048 34.5518 1.52506 36.1917 2.5 37.6401C4.40719 40.7968 5.9695 44.1494 7.16 47.6401C8.33 51.1601 9.02 54.8101 10.07 58.3601C10.9833 61.9203 12.6929 65.2268 15.07 68.0301C17.2736 70.6086 20.4091 72.2087 23.79 72.4801C24.72 72.5301 24.72 71.0601 23.79 71.0201C17.68 70.7201 13.79 64.9101 11.95 59.6801C10.84 56.4601 10.18 53.1201 9.26999 49.8401C8.33003 46.447 7.04325 43.1597 5.43 40.0301C4.68 38.5601 3.68 37.1301 2.93 35.6301C2.06184 34.2647 1.75045 32.6183 2.06 31.0301C2.88 28.2201 6.73 28.0301 9.12 27.9101C14.0208 27.6737 18.9059 28.6282 23.3572 30.6919C27.8086 32.7556 31.6937 35.8671 34.68 39.7601C36.6614 42.4247 38.3385 45.3026 39.68 48.3401C39.94 48.8901 40.76 48.4901 40.68 47.9401H40.61Z" fill="#4F2D27"/>
<path d="M29.5 55.1001C28.5162 53.732 27.6434 52.2874 26.89 50.7801C26.1788 49.2663 25.5805 47.7021 25.1 46.1001C25.0751 46.0101 25.0326 45.926 24.9752 45.8524C24.9177 45.7789 24.8463 45.7173 24.765 45.6714C24.6838 45.6254 24.5943 45.5959 24.5016 45.5845C24.409 45.5731 24.315 45.5801 24.225 45.6051C24.1351 45.63 24.0509 45.6725 23.9773 45.7299C23.9038 45.7874 23.8423 45.8588 23.7963 45.9401C23.7503 46.0213 23.7208 46.1108 23.7095 46.2035C23.6981 46.2961 23.7051 46.3901 23.73 46.4801C24.1527 48.2045 24.8087 49.8631 25.68 51.4101C26.4925 52.9655 27.5007 54.4106 28.68 55.7101C29.06 56.1201 29.81 55.5701 29.47 55.1001H29.5Z" fill="#4F2D27"/>
<path d="M27.15 56.1301C26.5 55.2301 25.88 54.3001 25.22 53.4001C24.56 52.5001 23.91 51.5301 23.17 50.6701C22.69 50.1101 21.72 50.8501 22.17 51.4701C22.81 52.4101 23.57 53.2701 24.28 54.1501C24.99 55.0301 25.72 55.8501 26.42 56.7201C26.76 57.1401 27.5 56.5801 27.18 56.1301H27.15Z" fill="#4F2D27"/>
<path d="M25.6 56.5201C25.03 56.7301 24.44 56.9101 23.86 57.0901C23.28 57.2701 22.71 57.5101 22.13 57.7201C21.9612 57.7734 21.8189 57.8887 21.7317 58.0426C21.6445 58.1966 21.6189 58.3779 21.66 58.5501C21.7069 58.7235 21.8205 58.8713 21.976 58.9613C22.1315 59.0512 22.3163 59.0759 22.49 59.0301C23.09 58.7901 23.71 58.5601 24.29 58.3001C24.87 58.0401 25.29 57.8101 25.9 57.5801C25.9696 57.5604 26.0346 57.5272 26.0914 57.4823C26.1482 57.4375 26.1955 57.3819 26.2308 57.3188C26.2661 57.2556 26.2886 57.1862 26.2971 57.1143C26.3055 57.0425 26.2997 56.9697 26.28 56.9001C26.2603 56.8305 26.2271 56.7654 26.1822 56.7087C26.1374 56.6519 26.0818 56.6045 26.0187 56.5693C25.9556 56.534 25.8861 56.5115 25.8142 56.503C25.7424 56.4946 25.6696 56.5004 25.6 56.5201Z" fill="#4F2D27"/>
<path d="M25.03 59.9701L24.42 60.1001C24.2012 60.1686 23.9873 60.2522 23.78 60.3501C23.3796 60.5437 23.0064 60.7891 22.67 61.0801C22.01 61.6222 21.4803 62.3057 21.12 63.0801C21.0544 63.2306 21.0463 63.4 21.0973 63.5561C21.1484 63.7122 21.255 63.8441 21.3969 63.9268C21.5388 64.0095 21.7061 64.0371 21.8671 64.0046C22.028 63.972 22.1714 63.8814 22.27 63.7501C22.4374 63.4024 22.6314 63.0681 22.85 62.7501L22.94 62.6301C22.9912 62.559 23.048 62.4921 23.11 62.4301C23.2423 62.2794 23.3825 62.1359 23.53 62.0001C23.6629 61.8658 23.8031 61.7389 23.95 61.6201L24.05 61.5401L24.29 61.3701C24.44 61.2601 24.61 61.1701 24.76 61.0501C24.9191 60.9327 25.09 60.8321 25.27 60.7501C25.3541 60.7016 25.4171 60.6235 25.4467 60.531C25.4763 60.4386 25.4703 60.3384 25.43 60.2501C25.3941 60.1599 25.3267 60.0857 25.2402 60.0416C25.1537 59.9974 25.0541 59.9862 24.96 60.0101L25.03 59.9701Z" fill="#4F2D27"/>
<path d="M34.98 51.4501C35.46 51.1801 35.98 51.0301 36.53 50.8101L37.87 50.2001C38.87 49.7701 39.8 49.3701 40.79 49.0101C42.7805 48.2892 44.8322 47.7503 46.92 47.4001C48.977 47.0451 51.0629 46.8844 53.15 46.9201C54.19 46.9201 55.23 46.9801 56.27 47.1001C57.33 47.2101 58.39 47.4901 59.45 47.5601C60.27 47.5601 60.34 46.4401 59.64 46.2001C58.5722 45.9046 57.4761 45.7236 56.37 45.6601C55.27 45.5501 54.16 45.4801 53.05 45.4701C50.9143 45.4683 48.7826 45.6557 46.68 46.0301C44.5548 46.3864 42.4685 46.9456 40.45 47.7001C39.426 48.0759 38.4244 48.5099 37.45 49.0001C36.95 49.2501 36.45 49.5201 35.99 49.8101C35.53 50.1001 35.12 50.5101 34.65 50.8101C34.5729 50.8672 34.5195 50.9508 34.5002 51.0448C34.4808 51.1389 34.4968 51.2367 34.5451 51.3197C34.5934 51.4026 34.6706 51.4649 34.7619 51.4945C34.8532 51.5241 34.9522 51.5189 35.04 51.4801L34.98 51.4501Z" fill="#4F2D27"/>
<path d="M46.37 97.3801C46.5075 97.6903 46.6715 97.988 46.86 98.2701C47.0895 98.5362 47.3555 98.7684 47.65 98.9601C48.2687 99.3521 48.943 99.6488 49.65 99.8401C51.2405 100.304 52.8938 100.517 54.55 100.47C56.1821 100.443 57.8032 100.198 59.37 99.7401C60.9914 99.3764 62.5072 98.6441 63.8 97.6001C63.8934 97.4974 63.9514 97.3676 63.9657 97.2296C63.9799 97.0915 63.9497 96.9525 63.8793 96.833C63.8088 96.7134 63.702 96.6195 63.5744 96.565C63.4468 96.5105 63.3051 96.4983 63.17 96.5301C61.83 97.0001 60.63 97.7801 59.27 98.2101C57.8722 98.6502 56.4237 98.9089 54.96 98.9801C53.5309 99.0439 52.0995 98.9263 50.7 98.6301C50.0479 98.5147 49.4083 98.3372 48.79 98.1001C48.5075 97.9897 48.2362 97.8524 47.98 97.6901C47.6117 97.5154 47.2741 97.2824 46.98 97.0001C46.9296 96.9152 46.8476 96.8539 46.7519 96.8295C46.6563 96.8051 46.5549 96.8197 46.47 96.8701C46.3851 96.9205 46.3238 97.0025 46.2994 97.0982C46.275 97.1938 46.2896 97.2952 46.34 97.3801H46.37Z" fill="#4F2D27"/>
<path d="M31.48 101.67C31.1942 102.147 30.9531 102.649 30.76 103.17C30.52 103.68 30.28 104.17 30.01 104.69C29.4531 105.687 28.8456 106.655 28.19 107.59C26.88 109.46 25.43 111.24 24.19 113.14C22.8892 114.984 21.9306 117.047 21.36 119.23C20.7416 121.363 20.9339 123.65 21.9 125.65C21.9706 125.778 22.0862 125.875 22.2243 125.923C22.3624 125.97 22.5133 125.965 22.6477 125.908C22.7821 125.85 22.8905 125.745 22.9518 125.613C23.0132 125.48 23.0233 125.33 22.98 125.19C22.7091 124.121 22.5714 123.023 22.57 121.92C22.6075 120.872 22.7823 119.833 23.09 118.83C23.7844 116.781 24.7968 114.854 26.09 113.12C27.34 111.35 28.7 109.65 29.89 107.83C30.4823 106.941 31.0007 106.004 31.44 105.03C31.9915 104.074 32.2908 102.994 32.31 101.89C32.3029 101.797 32.2671 101.709 32.2077 101.637C32.1482 101.565 32.0679 101.514 31.9779 101.49C31.8879 101.466 31.7926 101.47 31.7052 101.502C31.6178 101.535 31.5426 101.593 31.49 101.67H31.48Z" fill="#4F2D27"/>
<path d="M23.57 127.33C23.8211 127.724 24.1055 128.095 24.42 128.44C24.7576 128.781 25.1539 129.059 25.59 129.26C26.4621 129.698 27.4367 129.892 28.41 129.82C28.5675 129.815 28.7173 129.75 28.8287 129.639C28.9402 129.527 29.005 129.378 29.01 129.22C29.0049 129.063 28.9397 128.915 28.828 128.805C28.7163 128.695 28.5666 128.633 28.41 128.63C27.6296 128.701 26.8435 128.581 26.12 128.28C25.3557 127.99 24.6705 127.524 24.12 126.92C23.88 126.62 23.38 127.01 23.59 127.33H23.57Z" fill="#4F2D27"/>
<path d="M25.68 118.54C26.38 116.25 28.68 114.86 30.83 114.11C33.2602 113.14 35.8535 112.645 38.47 112.65C39.6273 112.649 40.7696 112.912 41.8095 113.42C42.8495 113.928 43.7595 114.667 44.47 115.58C45.9674 117.568 46.8096 119.972 46.88 122.46C46.88 124.91 44.88 127.69 42.19 126.8C41.48 126.57 41.19 127.68 41.88 127.92C44.5 128.79 47.09 126.98 47.98 124.55C48.98 121.76 48.03 118.64 46.67 116.14C46.0527 114.925 45.1676 113.867 44.0814 113.044C42.9953 112.221 41.7365 111.656 40.4 111.39C37.4 110.8 34.22 111.59 31.32 112.54C28.42 113.49 25.47 115.08 24.93 118.33C24.9115 118.432 24.9319 118.536 24.9871 118.623C25.0423 118.71 25.1283 118.774 25.228 118.8C25.3277 118.827 25.4337 118.814 25.5249 118.766C25.616 118.718 25.6857 118.637 25.72 118.54H25.68Z" fill="#4F2D27"/>
<path d="M39.77 123.26C40.4659 124.184 40.7809 125.34 40.65 126.49C40.4 127.38 39.29 127.7 38.51 127.93C37.57 128.2 36.4 128.55 35.51 127.99C35.1873 127.778 34.939 127.47 34.8 127.11C34.6865 126.711 34.6492 126.293 34.69 125.88C34.6894 125.735 34.6412 125.595 34.5529 125.48C34.4645 125.365 34.3409 125.283 34.201 125.245C34.0612 125.208 33.9129 125.217 33.779 125.272C33.6451 125.327 33.533 125.425 33.46 125.55C33.2387 126.033 33.1526 126.567 33.2107 127.096C33.2688 127.624 33.469 128.127 33.79 128.55C34.1413 129.029 34.6105 129.408 35.152 129.652C35.6935 129.895 36.2888 129.995 36.88 129.94C38.0446 129.863 39.1843 129.568 40.24 129.07C40.7715 128.845 41.2292 128.476 41.5615 128.004C41.8938 127.532 42.0873 126.976 42.12 126.4C42.1439 125.73 41.9849 125.066 41.66 124.48C41.2947 123.878 40.8728 123.312 40.4 122.79C40.12 122.44 39.56 122.89 39.79 123.26H39.77Z" fill="#4F2D27"/>
<path d="M33.68 125.92C33.5185 126.403 33.2896 126.861 33 127.28C32.7559 127.657 32.4557 127.994 32.11 128.28C31.7762 128.553 31.3907 128.756 30.9765 128.876C30.5624 128.996 30.1282 129.032 29.7 128.98C29.3006 128.917 28.919 128.77 28.58 128.55C28.2725 128.333 28.0136 128.053 27.82 127.73C27.6226 127.367 27.5117 126.964 27.4961 126.551C27.4805 126.138 27.5606 125.727 27.73 125.35C27.7746 125.188 27.7585 125.016 27.6849 124.865C27.6113 124.714 27.4851 124.595 27.33 124.53C27.1727 124.467 26.9982 124.462 26.8372 124.515C26.6762 124.568 26.5391 124.676 26.45 124.82C25.23 126.51 26.07 129.11 27.77 130.14C28.682 130.674 29.7519 130.872 30.7947 130.701C31.8374 130.529 32.7874 129.998 33.48 129.2C33.8594 128.756 34.1512 128.243 34.34 127.69C34.5014 127.139 34.549 126.56 34.48 125.99C34.4764 125.894 34.4389 125.802 34.3742 125.73C34.3095 125.659 34.2217 125.613 34.1262 125.599C34.0307 125.586 33.9336 125.607 33.852 125.659C33.7705 125.71 33.7096 125.788 33.68 125.88V125.92Z" fill="#4F2D27"/>
<path d="M30.26 64.9101C30.686 64.767 31.0899 64.5651 31.46 64.3101L32.06 63.9801L32.62 63.7101C33.012 63.5509 33.4126 63.414 33.82 63.3001L34.44 63.1501L34.8 63.0901C34.69 63.0901 34.94 63.0901 34.8 63.0901H35C35.113 63.0838 35.2234 63.0542 35.3244 63.0031C35.4253 62.952 35.5146 62.8806 35.5866 62.7933C35.6587 62.7061 35.7119 62.6048 35.7429 62.496C35.7738 62.3872 35.782 62.2732 35.7668 62.161C35.7515 62.0489 35.7133 61.9412 35.6544 61.8446C35.5955 61.7479 35.5172 61.6646 35.4246 61.5997C35.3319 61.5348 35.2268 61.4898 35.1158 61.4675C35.0049 61.4452 34.8906 61.4461 34.78 61.4701C33.7884 61.6151 32.8283 61.9261 31.94 62.3901C31.496 62.6246 31.0742 62.899 30.68 63.2101C30.4916 63.3567 30.3145 63.5171 30.15 63.6901C29.9574 63.897 29.8108 64.1424 29.72 64.4101C29.7024 64.4819 29.7036 64.557 29.7235 64.6282C29.7434 64.6994 29.7813 64.7643 29.8336 64.8165C29.8858 64.8688 29.9507 64.9067 30.0219 64.9266C30.0931 64.9465 30.1682 64.9477 30.24 64.9301L30.26 64.9101Z" fill="#4F2D27"/>
<path d="M70.9 52.0901C71.43 52.8301 71.9 53.6301 72.37 54.3801C72.84 55.1301 73.49 55.9201 74.06 56.6801C75.13 58.1101 76.25 59.5101 77.35 60.9201C79.4846 63.5055 81.3634 66.2919 82.96 69.2401C85.2518 73.7108 85.9214 78.8382 84.8546 83.7475C83.7878 88.6568 81.0506 93.0438 77.11 96.1601C76.5 96.6501 77.37 97.5001 77.98 97.0301C80.5153 95.0246 82.6065 92.5145 84.1213 89.6588C85.6361 86.8031 86.5415 83.6639 86.78 80.4401C87.0202 76.9437 86.4487 73.439 85.11 70.2001C83.709 67.0544 81.8965 64.1087 79.72 61.4401C78.4733 59.8134 77.2033 58.2034 75.91 56.6101C75.21 55.7501 74.5 54.8901 73.78 54.0401C73.06 53.1901 72.22 52.4701 71.49 51.6301C71.21 51.3201 70.66 51.7401 70.9 52.0901Z" fill="#4F2D27"/>
<path d="M60.57 77.3401C59.992 77.7563 59.275 77.932 58.57 77.8301C58.2267 77.7764 57.9042 77.631 57.6367 77.4092C57.3692 77.1874 57.1665 76.8975 57.05 76.5701C57.0032 76.4175 56.9763 76.2596 56.97 76.1001H56.86C56.76 76.9001 54.04 79.3001 53.29 79.0201C52.7 79.5601 49.57 78.5601 49.17 77.8601H49.06C49.1171 78.0182 49.1541 78.1828 49.17 78.3501C49.1797 78.6948 49.1001 79.0362 48.9389 79.3411C48.7777 79.646 48.5404 79.904 48.25 80.0901C47.6481 80.4475 46.9303 80.5551 46.25 80.3901C45.3407 80.12 44.552 79.5451 44.0166 78.7621C43.4812 77.979 43.2317 77.0355 43.31 76.0901C43.4189 75.1491 43.7299 74.2428 44.2219 73.4333C44.7138 72.6238 45.3749 71.9302 46.16 71.4001C47.7404 70.35 49.4841 69.5694 51.32 69.0901C53.2 68.9101 55.32 68.5301 57.17 68.9801C58.1001 69.1675 58.9786 69.5542 59.7451 70.1135C60.5116 70.6728 61.1478 71.3915 61.61 72.2201C62.0496 73.0635 62.1861 74.0323 61.9968 74.9643C61.8075 75.8963 61.3038 76.7351 60.57 77.3401Z" fill="#4F2D27"/>
<path d="M53.04 79.4801C53.0799 79.9476 53.1912 80.4063 53.37 80.8401C53.7198 81.8405 54.1582 82.8077 54.68 83.7301C55.7571 86.0523 57.2099 88.1809 58.98 90.0301C63.25 94.1201 70.46 95.9401 75.61 92.3801C78.15 90.6201 79.7 87.2901 78.67 84.2601C78.43 83.5501 77.31 83.8601 77.55 84.5701C77.9209 85.8086 77.8817 87.1338 77.4385 88.3483C76.9952 89.5628 76.1715 90.6016 75.09 91.3101C72.8 92.8801 69.74 92.9401 67.09 92.3101C64.4619 91.7354 62.0411 90.4524 60.09 88.6001C58.5536 86.9739 57.2542 85.1392 56.23 83.1501C55.69 82.2101 55.23 81.2101 54.57 80.3101C54.3266 79.8994 54.0381 79.517 53.71 79.1701C53.6519 79.1191 53.5807 79.0856 53.5044 79.0734C53.4281 79.0612 53.3499 79.0708 53.2788 79.1012C53.2077 79.1315 53.1467 79.1813 53.1026 79.2448C53.0586 79.3083 53.0335 79.3829 53.03 79.4601L53.04 79.4801Z" fill="#4F2D27"/>
<path d="M78.19 82.0801C78.3466 81.545 78.4042 80.9859 78.36 80.4301C78.2698 79.8642 78.0874 79.317 77.82 78.8101C77.2678 77.7713 76.4674 76.885 75.49 76.2301C73.32 74.7401 70.57 74.5001 68.05 74.1001C67.44 74.0001 67.17 74.9201 67.79 75.0401C70.03 75.4801 72.41 75.8401 74.37 77.0401C75.2234 77.5619 75.948 78.2695 76.49 79.1101C77.039 79.951 77.3468 80.9264 77.38 81.9301C77.3742 82.0331 77.4075 82.1344 77.4732 82.214C77.5388 82.2935 77.632 82.3454 77.7342 82.3593C77.8364 82.3732 77.9401 82.348 78.0245 82.2889C78.109 82.2297 78.1681 82.1409 78.19 82.0401V82.0801Z" fill="#4F2D27"/>
<path d="M54.44 45.1001C54.5121 41.8949 54.9279 38.7067 55.68 35.5901C56.817 31.204 58.9252 27.1295 61.8487 23.6678C64.7721 20.206 68.4362 17.4454 72.57 15.5901C73.8984 14.9665 75.2724 14.445 76.68 14.0301C78.0095 13.5676 79.4376 13.4641 80.82 13.7301C84.42 14.7301 83.49 19.3901 83.13 22.0801C82.6552 25.6367 82.5647 29.2341 82.86 32.8101C83.15 36.4201 83.86 39.9701 84.25 43.5801C84.6918 46.9724 84.3497 50.4208 83.25 53.6601C82.302 56.4554 80.2998 58.7698 77.67 60.1101C76.82 60.5101 77.56 61.7701 78.4 61.3701C83.98 58.7301 85.9 52.1101 85.79 46.3701C85.5554 42.6088 85.1147 38.8632 84.47 35.1501C83.9802 31.2782 83.9299 27.3633 84.32 23.4801C84.67 20.1701 85.86 16.1401 83.18 13.4801C80.9 11.1601 77.28 11.9901 74.57 12.9301C68.5307 15.035 63.2608 18.9013 59.44 24.0301C55.04 29.9401 52.26 37.8901 53.44 45.2901C53.54 45.8901 54.44 45.7101 54.44 45.1501V45.1001Z" fill="#4F2D27"/>
<path d="M67.39 47.7301C68.6268 44.3861 68.9714 40.7777 68.39 37.2601C68.25 36.4701 66.94 36.6501 66.99 37.4501C67.1592 39.1111 67.2093 40.782 67.14 42.4501C67.0259 44.1343 66.775 45.8065 66.39 47.4501C66.3723 47.5158 66.3676 47.5843 66.3764 47.6517C66.3851 47.7192 66.4071 47.7842 66.441 47.8432C66.4749 47.9022 66.52 47.9539 66.5739 47.9954C66.6278 48.0369 66.6893 48.0674 66.755 48.0851C66.8206 48.1028 66.8891 48.1075 66.9566 48.0987C67.024 48.09 67.0891 48.068 67.1481 48.0341C67.207 48.0002 67.2588 47.955 67.3003 47.9012C67.3418 47.8473 67.3723 47.7858 67.39 47.7201V47.7301Z" fill="#4F2D27"/>
<path d="M69.92 47.7801C70.24 46.7801 70.59 45.6801 70.92 44.6301C71.25 43.5801 71.59 42.5201 71.81 41.4501C71.8442 41.2858 71.8146 41.1147 71.7272 40.9715C71.6397 40.8283 71.501 40.7237 71.3392 40.6791C71.1775 40.6346 71.0048 40.6533 70.8563 40.7315C70.7079 40.8097 70.5948 40.9415 70.54 41.1001C70.2 42.1001 69.98 43.2401 69.72 44.3001C69.46 45.3601 69.25 46.4501 68.99 47.5201C68.9692 47.64 68.9937 47.7633 69.0588 47.8661C69.1239 47.9688 69.2249 48.0437 69.3422 48.0761C69.4594 48.1086 69.5845 48.0962 69.6932 48.0415C69.8018 47.9868 69.8863 47.8936 69.93 47.7801H69.92Z" fill="#4F2D27"/>
<path d="M70.62 48.4501C71.23 48.4501 71.85 48.4501 72.46 48.4501C73.07 48.4501 73.69 48.4501 74.3 48.4501C74.4804 48.4501 74.6533 48.3784 74.7808 48.2509C74.9084 48.1234 74.98 47.9504 74.98 47.7701C74.98 47.5897 74.9084 47.4168 74.7808 47.2893C74.6533 47.1617 74.4804 47.0901 74.3 47.0901C73.69 47.0901 73.07 47.0901 72.46 47.1701C71.85 47.2501 71.24 47.2801 70.62 47.3101C70.4749 47.3127 70.3365 47.3714 70.2339 47.474C70.1314 47.5766 70.0726 47.715 70.07 47.8601C70.07 48.006 70.1279 48.1459 70.2311 48.249C70.3342 48.3521 70.4741 48.4101 70.62 48.4101V48.4501Z" fill="#4F2D27"/>
<path d="M72.45 51.1301C72.7886 51.1617 73.1234 51.2253 73.45 51.3201C73.8174 51.4043 74.1783 51.5146 74.53 51.6501L74.96 51.8301C75.13 51.9201 75.3 52.0101 75.46 52.1101C75.6194 52.2042 75.773 52.3077 75.92 52.4201L76.04 52.5101L76.25 52.6901C76.3766 52.8111 76.5449 52.8787 76.72 52.8787C76.8951 52.8787 77.0635 52.8111 77.19 52.6901C77.3134 52.5648 77.3825 52.396 77.3825 52.2201C77.3825 52.0442 77.3134 51.8754 77.19 51.7501C76.5295 51.1271 75.7363 50.6621 74.87 50.3901C74.448 50.2612 74.011 50.1872 73.57 50.1701C73.1336 50.1732 72.6984 50.2167 72.27 50.3001C71.8 50.3701 71.93 51.0901 72.37 51.1001L72.45 51.1301Z" fill="#4F2D27"/>
<path d="M69.68 56.1701C69.3187 55.8171 68.8643 55.5743 68.37 55.4701C67.8614 55.322 67.3384 55.2281 66.81 55.1901C65.8025 55.1023 64.7874 55.1903 63.81 55.4501C63.7056 55.479 63.6079 55.5282 63.5225 55.5948C63.4371 55.6614 63.3657 55.7443 63.3123 55.8385C63.2045 56.0289 63.1767 56.2542 63.235 56.4651C63.2934 56.6759 63.4331 56.855 63.6234 56.9628C63.8138 57.0706 64.0392 57.0984 64.25 57.0401C65.066 56.7897 65.9167 56.6716 66.77 56.6901C67.2151 56.6932 67.6595 56.7266 68.1 56.7901C68.524 56.878 68.9575 56.9116 69.39 56.8901C69.4719 56.8868 69.5512 56.8602 69.6185 56.8134C69.6857 56.7666 69.7382 56.7015 69.7698 56.6258C69.8013 56.5502 69.8105 56.4671 69.7964 56.3863C69.7823 56.3056 69.7454 56.2306 69.69 56.1701H69.68Z" fill="#4F2D27"/>
<path d="M79.99 100.31C80.0083 101.412 80.304 102.492 80.85 103.45C81.2975 104.42 81.8156 105.356 82.4 106.25C83.59 108.07 84.96 109.76 86.21 111.54C87.5039 113.274 88.5163 115.201 89.21 117.25C89.5212 118.249 89.6994 119.285 89.74 120.33C89.7402 121.437 89.599 122.539 89.32 123.61C89.2915 123.747 89.3117 123.89 89.3772 124.013C89.4426 124.137 89.5492 124.234 89.6784 124.287C89.8077 124.34 89.9516 124.347 90.0851 124.305C90.2187 124.264 90.3336 124.177 90.41 124.06C91.52 122.18 91.41 119.7 90.94 117.64C90.3738 115.455 89.4148 113.392 88.11 111.55C86.84 109.65 85.38 107.88 84.11 106C83.4521 105.067 82.8446 104.098 82.29 103.1C82.02 102.61 81.77 102.1 81.53 101.59C81.3428 101.066 81.1015 100.564 80.81 100.09C80.7595 100.011 80.6851 99.9507 80.5978 99.9171C80.5104 99.8834 80.4146 99.8785 80.3243 99.9031C80.234 99.9276 80.1538 99.9803 80.0955 100.053C80.0372 100.127 80.0037 100.217 80 100.31H79.99Z" fill="#4F2D27"/>
<path d="M88.19 125.33C87.6359 125.93 86.9517 126.395 86.19 126.69C85.4631 126.992 84.6737 127.112 83.89 127.04C83.7455 127.059 83.6127 127.13 83.5165 127.239C83.4204 127.349 83.3673 127.489 83.3673 127.635C83.3673 127.781 83.4204 127.922 83.5165 128.031C83.6127 128.141 83.7455 128.211 83.89 128.23C84.866 128.31 85.8451 128.12 86.72 127.68C87.1439 127.482 87.5297 127.211 87.86 126.88C88.1891 126.529 88.4838 126.147 88.74 125.74C88.94 125.43 88.45 125.04 88.21 125.33H88.19Z" fill="#4F2D27"/>
<path d="M87.41 116.74C86.94 113.9 84.57 112.27 82.03 111.31C79.22 110.24 75.96 109.31 72.93 109.66C71.5777 109.775 70.2689 110.195 69.1017 110.888C67.9346 111.581 66.9391 112.528 66.19 113.66C64.63 116.02 63.52 119.16 64.1 122C64.68 124.84 67.45 127.3 70.47 126.29C71.17 126.06 70.87 124.95 70.16 125.18C67.75 125.96 65.86 123.82 65.52 121.61C65.3463 119.163 66.0015 116.729 67.38 114.7C67.9666 113.713 68.7722 112.874 69.7345 112.249C70.6968 111.623 71.7901 111.226 72.93 111.09C75.557 110.911 78.192 111.292 80.66 112.21C83.06 112.96 85.83 114.31 86.66 116.92C86.7006 117.009 86.7718 117.081 86.8607 117.122C86.9495 117.163 87.0501 117.171 87.1444 117.145C87.2386 117.118 87.3202 117.059 87.3745 116.977C87.4287 116.896 87.4519 116.797 87.44 116.7L87.41 116.74Z" fill="#4F2D27"/>
<path d="M71.91 121.2C71.0384 122.056 70.4429 123.153 70.2 124.35C70.1342 124.932 70.2403 125.521 70.5051 126.043C70.7698 126.565 71.1817 126.999 71.69 127.29C72.6662 127.822 73.7356 128.162 74.84 128.29C75.4335 128.42 76.0495 128.403 76.635 128.241C77.2204 128.078 77.7576 127.776 78.2 127.36C78.6364 126.926 78.9311 126.369 79.0453 125.764C79.1596 125.159 79.088 124.534 78.84 123.97C78.767 123.845 78.6549 123.747 78.521 123.692C78.3871 123.637 78.2388 123.628 78.099 123.665C77.9591 123.703 77.8355 123.785 77.7471 123.9C77.6588 124.015 77.6106 124.155 77.61 124.3C77.6554 124.713 77.618 125.131 77.5 125.53C77.364 125.889 77.1148 126.195 76.79 126.4C75.88 126.96 74.72 126.62 73.79 126.34C73.01 126.11 71.9 125.8 71.66 124.91C71.5228 123.76 71.8384 122.602 72.54 121.68C72.76 121.31 72.21 120.85 71.93 121.2H71.91Z" fill="#4F2D27"/>
<path d="M77.78 124.44C77.6527 125.445 77.9059 126.462 78.49 127.29C79.0972 128.174 80.0024 128.809 81.04 129.08C82.0894 129.332 83.1933 129.219 84.17 128.76C84.6384 128.532 85.0566 128.213 85.4 127.822C85.7435 127.43 86.0053 126.974 86.17 126.48C86.368 125.955 86.4394 125.391 86.3786 124.833C86.3178 124.276 86.1264 123.74 85.82 123.27C85.7347 123.122 85.5984 123.011 85.4366 122.956C85.2748 122.902 85.0988 122.909 84.9415 122.975C84.7843 123.041 84.6567 123.163 84.5828 123.317C84.5088 123.47 84.4936 123.646 84.54 123.81C84.7155 124.183 84.7998 124.593 84.7859 125.005C84.772 125.417 84.6603 125.82 84.46 126.18C84.3704 126.347 84.2558 126.498 84.12 126.63C83.9912 126.766 83.8506 126.889 83.7 127C83.358 127.222 82.9728 127.368 82.57 127.43C82.1432 127.488 81.7091 127.455 81.2958 127.335C80.8824 127.214 80.4989 127.008 80.17 126.73C79.8192 126.449 79.5184 126.111 79.28 125.73C78.9874 125.315 78.7551 124.86 78.59 124.38C78.5681 124.283 78.5108 124.198 78.4294 124.141C78.348 124.084 78.2482 124.059 78.1496 124.071C78.0509 124.084 77.9605 124.133 77.8958 124.208C77.8312 124.284 77.797 124.381 77.8 124.48L77.78 124.44Z" fill="#4F2D27"/>
<path d="M285.68 67.0301C287.456 57.8954 287.615 48.5198 286.15 39.3301C286.44 35.2301 283.62 28.9701 279.9 24.9301C279.902 24.8091 279.875 24.6894 279.823 24.5802C279.771 24.4709 279.695 24.3751 279.6 24.3001C277.37 22.3001 274.77 20.1501 271.6 20.4101C270.271 20.4809 269.01 21.0193 268.04 21.9301C267.545 22.472 267.168 23.1111 266.934 23.8068C266.7 24.5024 266.613 25.2392 266.68 25.9701C266.87 29.1801 268.59 32.2001 270.14 34.9701C270.88 36.2701 271.6 37.5701 272.27 38.9001C272.54 39.6401 272.81 40.3801 273.07 41.1201C275.63 48.3501 277.57 55.7301 276.66 63.3101C279.148 65.5534 282.334 66.8677 285.68 67.0301Z" fill="#7F5A57"/>
<path d="M276.68 63.2801C275.919 69.0863 273.612 74.5813 270 79.1901C271.11 76.0601 266 68.1001 268.18 66.3201C268.159 66.2153 268.133 66.1118 268.1 66.0101C270.34 63.2615 271.875 60.0071 272.57 56.5301C273.586 52.4634 273.924 48.2569 273.57 44.0801C273.477 43.0787 273.265 42.0918 272.94 41.1401C272.613 40.1922 272.095 39.3211 271.42 38.5801C270.19 34.8901 258.42 40.1901 256.15 41.3901C253.21 43.4701 250.54 45.5901 247.71 46.8201C247.585 46.9869 247.452 47.1471 247.31 47.3001C245.81 48.8801 243.77 48.4101 241.88 47.9601L241.13 47.7901C240.84 47.7401 240.53 47.6801 240.23 47.6101C238.847 47.3626 237.445 47.2288 236.04 47.2101C237.35 57.6401 234.58 68.4301 226.18 75.2701C219.18 81.2701 207.61 84.0901 199.71 77.5901C198.791 76.675 197.923 75.7102 197.11 74.7001C194.8 84.8101 197.11 96.7001 208.59 99.0501C206.717 102.774 206.072 106.997 206.75 111.11C192.42 115.11 203.88 133.82 214.39 124.86C215.346 125.635 216.569 126.002 217.794 125.88C219.018 125.759 220.145 125.158 220.93 124.21C221.21 126.73 225.12 123.9 225.47 122.5L242.91 122.62C244.413 124.033 246.347 124.899 248.402 125.081C250.457 125.262 252.513 124.748 254.24 123.62C255.048 124.89 256.282 125.83 257.72 126.273C259.158 126.717 260.707 126.634 262.09 126.04C266.59 127.65 269.6 122.14 268.94 118.26C258.87 103.96 279.87 95.1101 285.68 67.0301C282.337 66.8548 279.158 65.5301 276.68 63.2801Z" fill="#FDF0DC"/>
<path d="M226.16 75.2701C234.56 68.4301 237.33 57.6401 236.02 47.2101C235.75 47.2101 235.48 47.2101 235.21 47.2101C233.13 47.2101 230.97 47.8801 228.99 46.9201C227.64 46.2701 226.86 44.9201 225.78 44.0001C220.4 40.4601 215.78 34.5901 208.78 32.9101C208.747 32.8066 208.692 32.7113 208.62 32.6301C208.296 32.2879 207.877 32.0514 207.417 31.9515C206.956 31.8516 206.476 31.8929 206.04 32.0701C205.579 32.2709 205.168 32.5687 204.833 32.9432C204.498 33.3177 204.248 33.7601 204.1 34.2401C203.697 35.3041 203.363 36.3931 203.1 37.5001C202.79 38.7201 202.51 39.9501 202.27 41.1801C201.218 45.7712 201.015 50.5159 201.67 55.1801C201.919 56.8204 202.565 58.3753 203.55 59.7101C202.1 62.2501 200.91 64.9801 199.82 67.2501C198.582 69.613 197.657 72.1276 197.07 74.7301C197.883 75.7402 198.751 76.705 199.67 77.6201C207.59 84.0901 219.2 81.3101 226.16 75.2701Z" fill="#F7B385"/>
<path d="M264.45 59.0301C265.643 59.9916 266.566 61.2457 267.13 62.6701C267.39 62.2301 267.64 61.7801 267.89 61.3701C271.53 55.3701 273.89 46.7801 269.42 40.5701C268.774 40.7303 268.143 40.9409 267.53 41.2001C263.366 43.1837 260.024 46.5574 258.08 50.7401C257.448 52.5447 257.147 54.4485 257.19 56.3601C259.813 56.5506 262.329 57.4759 264.45 59.0301Z" fill="#FDAD8D"/>
<path d="M216.09 46.4301C215.872 44.8944 215.395 43.4067 214.68 42.0301C213.96 40.5497 213.081 39.1515 212.06 37.8601C211.042 36.5312 209.713 35.4733 208.19 34.7801C207.49 34.4701 206.77 34.2101 206.05 33.9601C206.05 33.9601 206.05 34.0201 206.05 34.0401C205.069 35.9292 204.272 37.9083 203.67 39.9501C203.205 41.5877 202.87 43.2596 202.67 44.9501C202.526 49.0861 203.012 53.2199 204.11 57.2101C204.18 57.4801 204.23 57.7801 204.28 58.0801C206.17 55.724 208.641 53.9008 211.45 52.7901C212.746 52.2713 214.085 51.8631 215.45 51.5701C216.086 49.9363 216.306 48.17 216.09 46.4301Z" fill="#FDAD8D"/>
<path d="M205.22 55.2701C204.531 57.0413 203.747 58.7739 202.87 60.4601C202.07 62.1601 201.22 63.8301 200.4 65.4601C198.652 68.7842 197.242 72.275 196.19 75.8801C195.19 79.3382 195.06 82.9895 195.81 86.5101C196.516 89.3899 197.886 92.0645 199.81 94.3201C201.952 96.9079 204.791 98.8271 207.99 99.8501C208.86 100.1 209.17 98.8501 208.36 98.5201C205.701 97.5355 203.313 95.9346 201.392 93.8487C199.471 91.7628 198.072 89.2513 197.31 86.5201C195.47 79.6401 198.47 72.6601 201.41 66.5201C202.3 64.6901 203.19 62.8801 204 61.0101C204.749 59.162 205.381 57.2682 205.89 55.3401C205.904 55.2526 205.885 55.1629 205.837 55.0883C205.789 55.0138 205.716 54.9595 205.63 54.936C205.545 54.9124 205.454 54.9213 205.374 54.9608C205.295 55.0003 205.233 55.0677 205.2 55.1501L205.22 55.2701Z" fill="#4F2D27"/>
<path d="M228.58 47.2301C227.758 45.585 226.681 44.0798 225.39 42.7701C224.153 41.3843 222.816 40.0908 221.39 38.9001C218.583 36.488 215.461 34.4695 212.11 32.9001C210.49 32.1501 208.6 31.1501 206.77 31.1201C204.94 31.0901 203.77 32.5801 203.13 34.2601C201.551 38.3313 200.49 42.5845 199.97 46.9201C199.56 51.2001 200.11 55.9201 202.52 59.6301C202.567 59.7096 202.628 59.7791 202.702 59.8346C202.775 59.8902 202.859 59.9307 202.948 59.9539C203.037 59.9771 203.13 59.9826 203.221 59.9699C203.313 59.9572 203.401 59.9267 203.48 59.8801C203.559 59.8335 203.629 59.7717 203.684 59.6982C203.74 59.6247 203.781 59.541 203.804 59.4519C203.827 59.3627 203.832 59.2699 203.82 59.1787C203.807 59.0874 203.777 58.9996 203.73 58.9201C201.967 55.741 201.132 52.1306 201.32 48.5001C201.604 44.4672 202.431 40.4912 203.78 36.6801C204.2 35.3401 204.58 32.8401 206.25 32.5001C207.163 32.424 208.08 32.6004 208.9 33.0101C209.73 33.3201 210.54 33.6601 211.34 34.0101C214.443 35.4368 217.353 37.2513 220 39.4101C221.456 40.6016 222.833 41.8877 224.12 43.2601C225.44 44.6601 226.54 46.2601 227.93 47.6301C228.27 47.9601 228.7 47.5501 228.54 47.1701L228.58 47.2301Z" fill="#4F2D27"/>
<path d="M214.68 51.7101C213.905 50.4526 212.94 49.3226 211.82 48.3601C211.273 47.8838 210.699 47.4398 210.1 47.0301C209.488 46.5688 208.815 46.1952 208.1 45.9201C207.953 45.8644 207.79 45.8695 207.646 45.9342C207.503 45.9989 207.391 46.1179 207.335 46.2651C207.279 46.4123 207.284 46.5756 207.349 46.7191C207.414 46.8625 207.533 46.9744 207.68 47.0301C208.25 47.4301 208.88 47.7401 209.46 48.1201C210.032 48.4919 210.58 48.8994 211.1 49.3401C212.156 50.2561 213.133 51.2597 214.02 52.3401C214.36 52.7401 215.02 52.2301 214.74 51.7901L214.68 51.7101Z" fill="#4F2D27"/>
<path d="M211.94 51.3501L209.77 50.9601C209.42 50.8901 209.06 50.8401 208.7 50.7901C208.291 50.6705 207.859 50.65 207.44 50.7301C207.34 50.7633 207.252 50.824 207.185 50.9052C207.118 50.9865 207.075 51.0849 207.061 51.1893C207.048 51.2937 207.064 51.3998 207.108 51.4955C207.152 51.5911 207.222 51.6725 207.31 51.7301C207.678 51.9166 208.087 52.0094 208.5 52.0001C208.87 52.0001 209.24 52.1001 209.62 52.1301L211.81 52.3301C211.943 52.3473 212.077 52.3112 212.183 52.2296C212.289 52.148 212.358 52.0277 212.375 51.8951C212.392 51.7625 212.356 51.6285 212.275 51.5225C212.193 51.4166 212.073 51.3473 211.94 51.3301V51.3501Z" fill="#4F2D27"/>
<path d="M209.51 52.5001L208.05 52.7001L207.34 52.8001C207.093 52.8298 206.849 52.88 206.61 52.9501C206.473 52.9896 206.356 53.0772 206.279 53.1966C206.201 53.316 206.17 53.4593 206.19 53.6001C206.209 53.7397 206.279 53.8674 206.386 53.9594C206.492 54.0514 206.629 54.1014 206.77 54.1001C207.052 54.1031 207.334 54.0763 207.61 54.0201L208.35 53.9001L209.82 53.6501C209.972 53.608 210.101 53.5078 210.18 53.3712C210.258 53.2346 210.28 53.0726 210.24 52.9201C210.194 52.771 210.093 52.645 209.957 52.5671C209.822 52.4893 209.662 52.4653 209.51 52.5001Z" fill="#4F2D27"/>
<path d="M220.26 126.17C222.18 126.58 224.37 126.34 225.66 124.72C226.238 123.925 226.608 122.997 226.733 122.022C226.859 121.047 226.738 120.056 226.38 119.14C225.667 117.292 224.592 115.605 223.219 114.178C221.845 112.751 220.2 111.613 218.38 110.83C216.421 109.975 214.309 109.528 212.171 109.518C210.034 109.507 207.917 109.933 205.95 110.77C202.33 112.33 199.27 115.45 198.84 119.51C198.712 120.588 198.815 121.68 199.143 122.715C199.47 123.75 200.015 124.703 200.74 125.51C201.438 126.275 202.305 126.868 203.272 127.241C204.238 127.614 205.278 127.758 206.31 127.66C207.21 127.55 207.22 126.11 206.31 126.22C202.93 126.63 200.31 123.71 200.24 120.47C200.19 116.97 202.57 114.12 205.52 112.54C208.631 110.889 212.251 110.477 215.653 111.386C219.055 112.295 221.987 114.458 223.86 117.44C224.86 119.04 225.72 121.06 224.99 122.95C224.26 124.84 222.07 124.95 220.28 125.38C220.198 125.403 220.127 125.453 220.076 125.52C220.025 125.588 219.997 125.67 219.997 125.755C219.997 125.84 220.025 125.922 220.076 125.99C220.127 126.058 220.198 126.107 220.28 126.13L220.26 126.17Z" fill="#4F2D27"/>
<path d="M204.59 123.74C204.698 124.858 205.201 125.901 206.01 126.68C206.865 127.474 207.958 127.963 209.12 128.07C210.284 128.138 211.44 127.836 212.423 127.208C213.405 126.579 214.164 125.656 214.59 124.57C214.87 123.76 213.59 123.18 213.19 123.98C212.877 124.778 212.324 125.459 211.607 125.93C210.891 126.401 210.047 126.638 209.19 126.61C208.355 126.531 207.562 126.208 206.91 125.68C206.181 125.136 205.62 124.398 205.29 123.55C205.265 123.457 205.204 123.378 205.12 123.33C205.037 123.283 204.938 123.27 204.845 123.295C204.752 123.32 204.673 123.381 204.625 123.465C204.578 123.548 204.565 123.647 204.59 123.74Z" fill="#4F2D27"/>
<path d="M213.68 124.85C213.824 125.108 213.98 125.358 214.15 125.6C214.319 125.785 214.503 125.956 214.7 126.11C215.136 126.459 215.626 126.736 216.15 126.93C217.208 127.337 218.368 127.393 219.46 127.09C220.543 126.79 221.487 126.121 222.13 125.2C222.449 124.738 222.673 124.219 222.79 123.67C222.95 123.104 222.95 122.506 222.79 121.94C222.741 121.773 222.633 121.629 222.487 121.534C222.341 121.44 222.166 121.4 221.994 121.423C221.821 121.446 221.662 121.53 221.546 121.659C221.43 121.789 221.364 121.956 221.36 122.13C221.39 122.509 221.39 122.891 221.36 123.27C221.273 123.669 221.114 124.049 220.89 124.39C220.438 125.053 219.758 125.526 218.98 125.72C218.196 125.924 217.369 125.896 216.6 125.64C216.195 125.498 215.804 125.321 215.43 125.11L214.89 124.77C214.71 124.65 214.44 124.56 214.27 124.42C214.1 124.28 213.46 124.5 213.71 124.85H213.68Z" fill="#4F2D27"/>
<path d="M213.39 121.46C213.39 122.01 213.51 122.56 213.53 123.12C213.55 123.4 213.55 123.68 213.53 123.96C213.474 124.238 213.434 124.518 213.41 124.8C213.416 124.898 213.453 124.992 213.516 125.068C213.578 125.143 213.663 125.198 213.758 125.223C213.852 125.249 213.953 125.244 214.045 125.209C214.137 125.174 214.216 125.112 214.27 125.03C214.396 124.711 214.463 124.373 214.47 124.03C214.495 123.731 214.495 123.43 214.47 123.13C214.456 122.492 214.277 121.868 213.95 121.32C213.81 121.1 213.39 121.17 213.41 121.47L213.39 121.46Z" fill="#4F2D27"/>
<path d="M266.32 61.0301C266.398 62.8459 266.582 64.6556 266.87 66.4501C267.21 68.2801 267.65 70.0801 268.09 71.8801C269.06 75.3874 269.709 78.9754 270.03 82.6001C270.337 85.9595 269.837 89.3436 268.57 92.4701C267.406 95.0591 265.628 97.3247 263.39 99.0701C260.857 101.009 257.868 102.263 254.71 102.71C253.95 102.83 254.12 104.11 254.89 104.06C260.76 103.61 266.26 99.6901 269.12 94.6301C272.73 88.2201 271.65 80.6301 270.02 73.7501C269.52 71.6501 268.96 69.5601 268.45 67.4501C267.852 65.3397 267.377 63.196 267.03 61.0301C266.98 60.5801 266.28 60.5601 266.32 61.0301Z" fill="#4F2D27"/>
<path d="M249.68 49.4901C245.805 47.6797 241.62 46.6242 237.35 46.3801C233.051 46.0209 228.722 46.3586 224.53 47.3801C223.87 47.5501 224.15 48.5501 224.81 48.3801C228.885 47.4585 233.073 47.1418 237.24 47.4401C241.389 47.8622 245.476 48.7615 249.42 50.1201C249.79 50.2401 250.04 49.6601 249.68 49.4901Z" fill="#4F2D27"/>
<path d="M246.37 48.8701C247.84 47.9601 249.12 46.7301 250.53 45.7301C251.96 44.7148 253.449 43.7864 254.99 42.9501C258.085 41.2705 261.386 40.0031 264.81 39.1801C266.457 38.68 268.169 38.4239 269.89 38.4201C271.89 38.5601 272.03 40.4201 272.18 42.0301C272.726 46.1016 272.793 50.223 272.38 54.3101C271.91 58.2464 270.273 61.952 267.68 64.9501C267.08 65.6201 268.02 66.5801 268.68 65.9501C271.283 63.1634 272.986 59.6581 273.57 55.8901C274.223 51.5828 274.243 47.2032 273.63 42.8901C273.46 41.2101 273.46 39.0701 272.05 37.8901C270.64 36.7101 268.67 37.1001 267.05 37.3801C263.265 38.0314 259.592 39.2166 256.14 40.9001C254.192 41.8369 252.326 42.9341 250.56 44.1801C248.771 45.3057 247.183 46.7218 245.86 48.3701C245.63 48.7001 246.07 49.1001 246.39 48.9001L246.37 48.8701Z" fill="#4F2D27"/>
<path d="M259.17 56.2101C260.268 55.3482 261.443 54.5884 262.68 53.9401C263.274 53.6198 263.889 53.3391 264.52 53.1001C265.19 52.8501 265.88 52.6701 266.52 52.3901C266.627 52.3233 266.71 52.2239 266.756 52.1065C266.803 51.9891 266.81 51.86 266.778 51.738C266.745 51.616 266.675 51.5077 266.576 51.4289C266.477 51.3501 266.356 51.3049 266.23 51.3001C265.498 51.4034 264.785 51.6088 264.11 51.9101C263.403 52.2066 262.712 52.5404 262.04 52.9101C260.738 53.6204 259.554 54.5278 258.53 55.6001C258.11 56.0301 258.72 56.6001 259.17 56.2401V56.2101Z" fill="#4F2D27"/>
<path d="M261.31 56.8001L263.52 57.0701L264.6 57.1701C265.012 57.2574 265.44 57.2332 265.84 57.1001C265.921 57.0498 265.987 56.9798 266.033 56.8967C266.079 56.8136 266.103 56.7201 266.103 56.6251C266.103 56.5301 266.079 56.4366 266.033 56.3535C265.987 56.2704 265.921 56.2004 265.84 56.1501C265.463 55.9838 265.051 55.9117 264.64 55.9401L263.52 55.8701L261.31 55.8101C261.181 55.8126 261.058 55.8651 260.966 55.9564C260.875 56.0478 260.823 56.1709 260.82 56.3001C260.822 56.4302 260.875 56.5545 260.966 56.6474C261.057 56.7404 261.18 56.795 261.31 56.8001Z" fill="#4F2D27"/>
<path d="M262.99 58.5401L264.35 59.0801L265.01 59.3401C265.243 59.4395 265.484 59.5197 265.73 59.5801C265.867 59.6113 266.01 59.5945 266.135 59.5326C266.261 59.4706 266.361 59.3674 266.42 59.2401C266.476 59.1101 266.482 58.9641 266.438 58.8296C266.394 58.6952 266.302 58.5815 266.18 58.5101C265.931 58.3632 265.666 58.2458 265.39 58.1601L264.71 57.9101L263.3 57.4001C263.226 57.3789 263.148 57.3728 263.072 57.382C262.995 57.3912 262.921 57.4156 262.854 57.4538C262.787 57.492 262.728 57.5432 262.681 57.6044C262.634 57.6655 262.6 57.7355 262.58 57.8101C262.542 57.9611 262.564 58.1208 262.64 58.2565C262.716 58.3923 262.841 58.4937 262.99 58.5401Z" fill="#4F2D27"/>
<path d="M248.45 124.64C246.89 124.28 244.95 124.29 244.01 122.75C243.632 121.983 243.453 121.134 243.488 120.28C243.523 119.425 243.771 118.594 244.21 117.86C245.792 114.732 248.49 112.31 251.772 111.075C255.053 109.84 258.678 109.881 261.93 111.19C265.05 112.44 267.83 114.99 268.4 118.42C268.579 119.343 268.549 120.294 268.314 121.204C268.079 122.114 267.644 122.96 267.04 123.68C266.473 124.328 265.758 124.831 264.955 125.144C264.153 125.457 263.287 125.573 262.43 125.48C261.51 125.37 261.52 126.81 262.43 126.92C263.342 127.008 264.263 126.906 265.134 126.62C266.005 126.335 266.807 125.872 267.49 125.26C268.923 123.976 269.796 122.181 269.92 120.26C270.25 116.16 267.54 112.59 264.11 110.67C262.315 109.681 260.342 109.058 258.304 108.837C256.266 108.616 254.205 108.801 252.24 109.382C250.274 109.964 248.444 110.929 246.854 112.223C245.265 113.517 243.948 115.114 242.98 116.92C241.98 118.92 241.46 121.32 242.64 123.38C243.82 125.44 246.27 125.88 248.45 125.38C248.532 125.357 248.603 125.308 248.654 125.24C248.705 125.172 248.733 125.09 248.733 125.005C248.733 124.92 248.705 124.838 248.654 124.77C248.603 124.703 248.532 124.653 248.45 124.63V124.64Z" fill="#4F2D27"/>
<path d="M263.43 122.77C263.101 123.596 262.555 124.318 261.85 124.86C261.198 125.425 260.388 125.774 259.53 125.86C258.673 125.891 257.827 125.655 257.11 125.184C256.393 124.712 255.841 124.03 255.53 123.23C255.17 122.44 253.84 123 254.13 123.82C254.556 124.904 255.313 125.826 256.293 126.455C257.273 127.083 258.427 127.386 259.59 127.32C260.753 127.219 261.849 126.729 262.7 125.93C263.512 125.153 264.017 124.109 264.12 122.99C264.134 122.903 264.115 122.813 264.067 122.738C264.019 122.664 263.946 122.61 263.86 122.586C263.775 122.562 263.683 122.571 263.604 122.611C263.525 122.65 263.463 122.718 263.43 122.8V122.77Z" fill="#4F2D27"/>
<path d="M254.51 123.64C254.35 123.77 254.12 123.84 253.94 123.96L253.41 124.3C253.038 124.516 252.646 124.697 252.24 124.84C251.453 125.108 250.606 125.143 249.8 124.94C249.041 124.751 248.375 124.297 247.92 123.66C247.692 123.324 247.529 122.947 247.44 122.55C247.4 122.151 247.4 121.749 247.44 121.35C247.436 121.176 247.37 121.009 247.254 120.879C247.138 120.75 246.979 120.666 246.806 120.643C246.634 120.62 246.459 120.66 246.313 120.754C246.167 120.849 246.059 120.993 246.01 121.16C245.85 121.726 245.85 122.325 246.01 122.89C246.128 123.418 246.341 123.919 246.64 124.37C247.281 125.317 248.238 126.004 249.34 126.31C250.414 126.609 251.556 126.56 252.6 126.17C253.143 125.976 253.65 125.692 254.1 125.33C254.298 125.174 254.486 125.003 254.66 124.82C254.829 124.58 254.982 124.329 255.12 124.07C255.37 123.72 254.85 123.39 254.56 123.64H254.51Z" fill="#4F2D27"/>
<path d="M254.78 120.53C254.453 121.078 254.274 121.702 254.26 122.34C254.235 122.64 254.235 122.941 254.26 123.24C254.27 123.583 254.341 123.922 254.47 124.24C254.67 124.66 255.32 124.44 255.32 124.01C255.32 123.58 255.23 123.43 255.21 123.17C255.195 122.89 255.195 122.61 255.21 122.33C255.21 121.77 255.31 121.22 255.35 120.67C255.35 120.37 254.96 120.3 254.81 120.52L254.78 120.53Z" fill="#4F2D27"/>
<path d="M262.99 101.41C262.99 101.88 262.87 102.34 262.88 102.82C262.89 103.3 262.88 103.76 262.96 104.22C263.05 105.09 263.16 105.95 263.33 106.8C263.5 107.65 263.73 108.52 263.98 109.36C264.145 110.261 264.484 111.12 264.98 111.89C265.055 111.965 265.151 112.016 265.256 112.036C265.36 112.057 265.468 112.046 265.566 112.006C265.664 111.965 265.748 111.896 265.808 111.808C265.867 111.72 265.899 111.616 265.9 111.51C265.851 111.087 265.744 110.673 265.58 110.28C265.44 109.87 265.3 109.45 265.18 109.03C264.93 108.22 264.72 107.39 264.54 106.57C264.36 105.75 264.18 104.91 264.05 104.08C263.98 103.65 263.9 103.22 263.83 102.79C263.76 102.36 263.57 101.86 263.53 101.41C263.53 101.338 263.502 101.27 263.451 101.219C263.4 101.169 263.332 101.14 263.26 101.14C263.188 101.14 263.12 101.169 263.069 101.219C263.018 101.27 262.99 101.338 262.99 101.41Z" fill="#4F2D27"/>
<path d="M271.19 78.4101C276.61 69.4101 278.02 58.2201 276.04 48.0101C275.043 42.8311 273.119 37.8748 270.36 33.3801C268.91 31.0501 267.14 28.6301 267.28 25.7501C267.322 24.575 267.825 23.4637 268.68 22.657C269.536 21.8503 270.674 21.4131 271.85 21.4401C277.07 21.2401 281.07 25.9801 282.94 30.3701C285.09 35.4301 285.77 41.1201 286.14 46.5701C287.356 67.6331 280.339 88.3444 266.57 104.33C265.72 105.33 264.85 106.24 263.95 107.16C263.46 107.68 264.24 108.46 264.73 107.95C272.126 100.181 277.922 91.0346 281.79 81.0301C285.694 71.0082 287.616 60.3242 287.45 49.5701C287.452 44.026 286.78 38.5023 285.45 33.1201C284.03 27.8901 280.85 22.6901 275.6 20.6501C274.509 20.1887 273.331 19.9686 272.147 20.0049C270.963 20.0411 269.801 20.3329 268.74 20.8601C266.46 22.1501 265.74 24.7801 266.08 27.2501C266.53 30.1801 268.47 32.5701 269.91 35.0601C271.287 37.4319 272.426 39.9341 273.31 42.5301C276.817 52.9241 276.433 64.2376 272.23 74.3701C271.71 75.6101 271.23 76.8401 270.57 78.0501C270.535 78.1349 270.532 78.2296 270.561 78.3167C270.59 78.4037 270.65 78.4772 270.729 78.5235C270.809 78.5698 270.902 78.5859 270.992 78.5687C271.082 78.5516 271.163 78.5023 271.22 78.4301L271.19 78.4101Z" fill="#4F2D27"/>
<path d="M237.68 82.8901C236.919 83.9047 236.009 84.7981 234.98 85.5401C234.464 85.9094 233.872 86.1586 233.248 86.2694C232.623 86.3801 231.981 86.3496 231.37 86.1801C230.682 85.9019 230.051 85.4984 229.51 84.9901C228.517 84.2213 227.667 83.2837 227 82.2201C226.674 81.686 226.468 81.0876 226.395 80.4661C226.323 79.8447 226.386 79.2149 226.58 78.6201L227.53 77.7401C230.527 77.1164 233.636 77.3133 236.53 78.3101C237.53 78.6501 238.58 79.2201 238.79 80.2301C238.81 80.7276 238.722 81.2236 238.53 81.6831C238.338 82.1427 238.048 82.5546 237.68 82.8901Z" fill="#FDAD8D"/>
<path d="M221.21 81.0301C220.771 81.0644 220.336 81.138 219.91 81.2501C219.537 81.3932 219.196 81.611 218.91 81.8901C218.355 82.5075 218.052 83.3102 218.06 84.1401C218.068 85.8592 218.482 87.552 219.27 89.0801C219.962 90.5885 221.225 91.7608 222.78 92.3401C223.689 92.602 224.64 92.6803 225.579 92.5704C226.519 92.4605 227.426 92.1646 228.25 91.7001C230.176 90.6267 231.848 89.1497 233.15 87.3701C233.58 86.8001 232.69 86.2001 232.2 86.6401C230.69 88.0201 229.46 89.6401 227.6 90.5801C226.762 91.0885 225.8 91.3574 224.82 91.3574C223.84 91.3574 222.878 91.0885 222.04 90.5801C220.741 89.446 219.882 87.8926 219.61 86.1901C219.364 85.3636 219.299 84.4939 219.42 83.6401C219.5 83.2209 219.718 82.8407 220.04 82.5601C220.247 82.4058 220.468 82.2718 220.7 82.1601C220.926 82.0033 221.164 81.8629 221.41 81.7401C221.497 81.7162 221.572 81.6586 221.617 81.5798C221.662 81.501 221.674 81.4076 221.65 81.3201C221.626 81.2326 221.568 81.1581 221.49 81.1131C221.411 81.0681 221.317 81.0562 221.23 81.0801L221.21 81.0301Z" fill="#4F2D27"/>
<path d="M244.73 83.8101C245.132 84.0947 245.495 84.4309 245.81 84.8101C246.139 85.173 246.311 85.6509 246.29 86.1401C246.213 87.0433 245.943 87.9195 245.5 88.7101C244.856 90.3269 243.633 91.646 242.07 92.4101C241.172 92.6861 240.217 92.7234 239.3 92.5182C238.383 92.3131 237.535 91.8726 236.84 91.2401C235.22 89.9201 234.35 88.0801 233.16 86.4201C233.065 86.3218 232.94 86.2587 232.805 86.2413C232.669 86.2238 232.532 86.253 232.415 86.3241C232.299 86.3952 232.21 86.5039 232.164 86.6322C232.117 86.7606 232.116 86.9009 232.16 87.0301C233.66 90.2301 236.45 93.6901 240.23 93.9701C244.01 94.2501 246.3 90.8201 247.33 87.7401C247.691 86.8344 247.709 85.828 247.38 84.9101C247.191 84.513 246.905 84.1694 246.55 83.9101C246.363 83.7595 246.158 83.6319 245.94 83.5301C245.67 83.4001 245.38 83.3801 245.12 83.2701C245.042 83.2237 244.948 83.2103 244.86 83.2328C244.772 83.2553 244.696 83.3119 244.65 83.3901C244.604 83.4683 244.59 83.5618 244.613 83.65C244.635 83.7381 244.692 83.8137 244.77 83.8601L244.73 83.8101Z" fill="#4F2D27"/>
<path d="M229.04 93.3301C229.04 93.4301 229.04 93.4701 229.04 93.6001C229.059 93.6901 229.09 93.7774 229.13 93.8601C229.205 94.0586 229.299 94.2494 229.41 94.4301C229.62 94.7894 229.868 95.1247 230.15 95.4301C230.434 95.7226 230.745 95.9871 231.08 96.2201C231.424 96.4512 231.793 96.6425 232.18 96.7901C232.351 96.8361 232.533 96.8124 232.687 96.7243C232.841 96.6363 232.953 96.4909 233 96.3201C233.041 96.1519 233.016 95.9745 232.93 95.824C232.845 95.6735 232.705 95.5612 232.54 95.5101C232.39 95.4501 232.67 95.5701 232.54 95.5101L232.41 95.4501L232.19 95.3401C232.04 95.2601 231.89 95.1901 231.75 95.1001L231.31 94.8101L231.1 94.6301C230.849 94.4112 230.615 94.1738 230.4 93.9201L230.31 93.8101L230.11 93.5601L230.03 93.4601C230.11 93.5601 229.89 93.3001 229.95 93.3501C229.84 93.2625 229.748 93.1537 229.68 93.0301C229.632 92.9588 229.561 92.9063 229.479 92.8816C229.397 92.8568 229.309 92.8614 229.23 92.8945C229.151 92.9275 229.085 92.987 229.045 93.0629C229.005 93.1387 228.993 93.2261 229.01 93.3101L229.04 93.3301Z" fill="#4F2D27"/>
<path d="M224.01 71.1201C224.01 76.5601 216.8 76.4601 216.94 71.0201C217.08 65.5801 224.16 65.6801 224.01 71.1201Z" fill="#4F2D27"/>
<path d="M250.27 74.3601C250.27 79.8101 243.06 79.7001 243.2 74.2601C243.34 68.8201 250.42 68.9201 250.27 74.3601Z" fill="#4F2D27"/>
<path d="M215.85 64.2601C216.368 64.1587 216.855 63.9359 217.27 63.6101C217.706 63.3348 218.156 63.0844 218.62 62.8601L218.79 62.7901H218.84L219.21 62.6501C219.45 62.5601 219.68 62.4801 219.93 62.4101C220.18 62.3401 220.41 62.2701 220.65 62.2201C220.916 62.1822 221.18 62.1288 221.44 62.0601C221.634 62.0064 221.802 61.8839 221.913 61.7153C222.024 61.5467 222.069 61.3437 222.041 61.1441C222.013 60.9445 221.913 60.7619 221.76 60.6305C221.607 60.4991 221.412 60.4279 221.21 60.4301C220.898 60.436 220.588 60.4866 220.29 60.5801C220.033 60.6395 219.779 60.713 219.53 60.8001C218.967 60.9766 218.422 61.2042 217.9 61.4801C217.427 61.7218 216.976 62.0028 216.55 62.3201C216.11 62.6401 215.5 63.1201 215.41 63.6901C215.392 63.7585 215.39 63.8301 215.403 63.8996C215.416 63.969 215.445 64.0346 215.488 64.0913C215.53 64.148 215.584 64.1945 215.647 64.2271C215.71 64.2598 215.779 64.2779 215.85 64.2801V64.2601Z" fill="#4F2D27"/>
<path d="M250.68 67.3701C250.87 66.8001 250.23 66.3701 249.83 66.0901C249.451 65.8198 249.046 65.5886 248.62 65.4001C247.704 64.9561 246.721 64.6655 245.71 64.5401C245.501 64.5389 245.299 64.6138 245.141 64.7507C244.984 64.8876 244.881 65.0772 244.853 65.2841C244.825 65.4911 244.873 65.7012 244.988 65.8752C245.104 66.0493 245.278 66.1754 245.48 66.2301C245.91 66.3501 246.36 66.4201 246.8 66.5401C247.24 66.6601 247.66 66.8201 248.08 66.9901L248.23 67.0501L248.65 67.2201L248.77 67.2801C248.71 67.2801 248.85 67.2801 248.86 67.2801L249.15 67.4201C249.57 67.6201 250.44 68.0001 250.66 67.3301L250.68 67.3701Z" fill="#4F2D27"/>
<path d="M208.16 99.7201C207.048 100.504 206.147 101.552 205.54 102.77C205.224 103.364 204.957 103.983 204.74 104.62C204.46 105.279 204.304 105.984 204.28 106.7C204.281 106.843 204.333 106.981 204.428 107.088C204.522 107.195 204.653 107.265 204.794 107.283C204.936 107.301 205.08 107.267 205.199 107.188C205.317 107.108 205.403 106.988 205.44 106.85C205.67 106.29 205.73 105.64 205.92 105.06C206.111 104.472 206.348 103.9 206.63 103.35C207.229 102.259 207.897 101.207 208.63 100.2C208.667 100.134 208.682 100.058 208.672 99.9829C208.662 99.9079 208.628 99.8381 208.575 99.784C208.522 99.73 208.453 99.6945 208.378 99.683C208.303 99.6715 208.227 99.6845 208.16 99.7201Z" fill="#4F2D27"/>
<path d="M207.4 104.46C207.067 104.819 206.762 105.203 206.49 105.61C206.243 106.067 206.048 106.55 205.91 107.05C205.624 108.056 205.586 109.116 205.8 110.14C205.849 110.304 205.96 110.443 206.109 110.527C206.258 110.611 206.434 110.634 206.6 110.59C206.765 110.541 206.904 110.431 206.99 110.282C207.075 110.133 207.1 109.957 207.06 109.79C206.925 108.976 206.925 108.145 207.06 107.33C207.146 106.915 207.263 106.507 207.41 106.11C207.536 105.688 207.71 105.282 207.93 104.9C208.15 104.56 207.63 104.14 207.36 104.46H207.4Z" fill="#4F2D27"/>
<path d="M154.07 172.188C157.15 172.018 160.07 172.548 162.27 174.828C164.47 177.108 165.39 180.658 167.56 183.138C169.22 185.038 171.56 186.278 173 188.358C175.18 191.568 174.43 196.238 171.76 199.048C170.362 200.401 168.664 201.403 166.804 201.972C164.944 202.54 162.975 202.659 161.06 202.318C158.5 201.928 156.06 200.878 153.42 200.968C150.67 201.058 148.1 202.438 145.35 202.638C143.867 202.747 142.38 202.509 141.005 201.943C139.63 201.378 138.406 200.5 137.429 199.38C136.452 198.259 135.749 196.927 135.376 195.487C135.003 194.048 134.97 192.542 135.28 191.088C135.93 188.088 138.01 185.508 140.28 183.358C142.55 181.208 145.03 179.298 146.92 176.828C147.763 175.528 148.734 174.315 149.82 173.208C151.053 172.336 152.575 171.971 154.07 172.188Z" fill="white"/>
<path d="M181.2 165.788C182.218 167.163 182.768 168.828 182.77 170.538C182.764 172.239 182.484 173.927 181.94 175.538C181.331 177.891 180.094 180.035 178.36 181.738C177.523 182.649 176.415 183.267 175.199 183.499C173.984 183.731 172.726 183.565 171.612 183.027C170.498 182.488 169.587 181.605 169.014 180.509C168.441 179.412 168.236 178.16 168.43 176.938C169.093 172.637 171.416 168.767 174.9 166.158C176.49 165.158 178.37 163.958 181.24 165.788" fill="white"/>
<path d="M160.57 148.398C163.57 147.318 166.57 149.258 167.98 151.398C169.279 153.573 169.948 156.066 169.91 158.598C169.999 160.509 169.772 162.421 169.24 164.258C168.695 166.104 167.658 167.767 166.24 169.068C165.324 169.917 164.145 170.425 162.9 170.508C160.9 170.558 159.17 169.068 157.99 167.438C155.68 164.205 154.67 160.222 155.16 156.278C155.343 154.599 155.892 152.981 156.77 151.538C157.659 150.105 158.994 149.002 160.57 148.398Z" fill="white"/>
<path d="M126.57 165.788C125.558 167.155 125.008 168.808 125 170.508C125.004 172.21 125.288 173.899 125.84 175.508C126.445 177.863 127.683 180.007 129.42 181.708C130.257 182.619 131.366 183.237 132.581 183.469C133.796 183.701 135.054 183.535 136.168 182.997C137.282 182.458 138.193 181.575 138.766 180.479C139.339 179.382 139.544 178.13 139.35 176.908C139.097 174.475 138.196 172.154 136.74 170.188C135.763 168.581 134.458 167.198 132.91 166.128C131.33 165.128 129.45 163.928 126.57 165.758" fill="white"/>
<path d="M147.21 148.398C144.16 147.318 141.21 149.258 139.79 151.398C138.491 153.573 137.822 156.066 137.86 158.598C137.776 160.509 138.003 162.42 138.53 164.258C139.072 166.106 140.109 167.769 141.53 169.068C142.453 169.924 143.644 170.433 144.9 170.508C146.9 170.558 148.63 169.068 149.8 167.438C152.114 164.207 153.125 160.222 152.63 156.278C152.446 154.601 151.9 152.984 151.03 151.538C150.135 150.101 148.793 148.998 147.21 148.398Z" fill="white"/>
</svg>
