<svg width="65" height="65" viewBox="0 0 65 65" fill="none" xmlns="http://www.w3.org/2000/svg">
<path d="M18.297 43.5409C17.5045 42.992 16.598 42.6295 15.6455 42.4805C14.6931 42.3316 13.7192 42.4001 12.797 42.6809C10.797 43.3909 9.29698 45.1409 7.31698 45.9409C5.80698 46.5609 4.07698 46.5909 2.65698 47.3809C1.59516 48.057 0.78505 49.0635 0.351383 50.2452C-0.0822843 51.427 -0.115455 52.7185 0.256977 53.9209C0.675563 55.1078 1.36824 56.1791 2.27873 57.0479C3.18922 57.9167 4.29184 58.5584 5.49698 58.9209C7.08698 59.4409 8.82697 59.5609 10.307 60.3609C11.787 61.1609 12.957 62.7609 14.487 63.6809C15.3126 64.1747 16.2418 64.4696 17.2011 64.5423C18.1603 64.6149 19.1233 64.4633 20.0139 64.0995C20.9045 63.7357 21.6982 63.1697 22.3322 62.4462C22.9662 61.7227 23.4232 60.8615 23.667 59.9309C24.0477 57.942 23.8284 55.8849 23.037 54.0209C22.2483 52.1733 21.6031 50.2676 21.107 48.3209C20.993 47.3237 20.7854 46.3393 20.487 45.3809C20.0187 44.5104 19.2352 43.8521 18.297 43.5409Z" fill="#FDAD8D"/>
<path d="M4.48699 31.9409C3.49853 32.4399 2.69595 33.2424 2.19699 34.2309C1.69367 35.2156 1.35582 36.2765 1.19699 37.3709C0.864185 38.9067 0.957551 40.5043 1.46699 41.9909C1.73219 42.7297 2.20392 43.3769 2.82612 43.8555C3.44832 44.3342 4.19485 44.6241 4.97699 44.6909C5.76458 44.6545 6.52495 44.3917 7.167 43.9341C7.80905 43.4765 8.30554 42.8435 8.59699 42.1109C9.16138 40.6328 9.31684 39.0299 9.04699 37.4709C8.96513 36.2561 8.62415 35.073 8.04699 34.0009C7.42699 33.0009 6.68699 31.7209 4.49699 31.9409" fill="#FDAD8D"/>
<path d="M21.467 27.9009C20.775 27.2785 19.8994 26.898 18.9722 26.8168C18.045 26.7357 17.1166 26.9582 16.327 27.4509C14.9429 28.329 13.8312 29.5757 13.117 31.0509C12.5218 32.1334 12.1064 33.3053 11.887 34.5209C11.6666 35.7411 11.7771 36.998 12.207 38.1609C12.4751 38.9397 13.0099 39.5985 13.717 40.0209C14.321 40.2646 14.9744 40.3609 15.6231 40.3017C16.2717 40.2426 16.8969 40.0298 17.447 39.6809C19.7229 38.4836 21.465 36.4738 22.327 34.0509C22.7146 33.0279 22.8684 31.9311 22.777 30.8409C22.6807 29.7422 22.2196 28.7072 21.467 27.9009Z" fill="#FDAD8D"/>
<path d="M36.057 47.8409C36.2481 48.9336 36.0833 50.0588 35.587 51.0509C35.0863 52.0294 34.4313 52.9208 33.647 53.6909C32.6144 54.8765 31.2755 55.7553 29.777 56.2309C29.0283 56.5132 28.2087 56.5473 27.4392 56.3282C26.6696 56.109 25.991 55.6482 25.5034 55.0138C25.0158 54.3794 24.7451 53.605 24.7314 52.8049C24.7176 52.0049 24.9615 51.2217 25.427 50.5709C26.2802 49.2399 27.4751 48.1624 28.887 47.4509C29.9199 46.8019 31.0787 46.3793 32.287 46.2109C33.497 46.0909 34.927 45.9509 36.057 47.8409Z" fill="#FDAD8D"/>
<path d="M29.197 31.7909C30.1085 31.9766 30.9349 32.4534 31.5517 33.1496C32.1686 33.8459 32.5425 34.7237 32.617 35.6509C32.7312 37.29 32.3849 38.9283 31.617 40.3809C31.1195 41.508 30.4442 42.5479 29.617 43.4609C28.7678 44.3667 27.6899 45.0265 26.497 45.3709C25.714 45.6246 24.866 45.5891 24.107 45.2709C23.5415 44.9344 23.0648 44.4674 22.7169 43.909C22.3689 43.3505 22.1598 42.7168 22.107 42.0609C21.7153 39.5215 22.2898 36.9275 23.717 34.7909C24.3145 33.8767 25.1024 33.1023 26.027 32.5209C26.9727 31.931 28.0885 31.6741 29.197 31.7909Z" fill="#FDAD8D"/>
<path d="M51.887 12.3209C51.2262 12.5096 50.6151 12.8412 50.0967 13.2922C49.5782 13.7433 49.1653 14.3027 48.887 14.9309C48.337 16.3809 48.617 18.0309 48.127 19.5109C47.757 20.6409 46.957 21.6109 46.727 22.7809C46.5997 23.6913 46.7767 24.6182 47.2307 25.4176C47.6846 26.2169 48.3899 26.8438 49.237 27.2009C50.0935 27.5321 51.0166 27.654 51.9298 27.5566C52.8429 27.4592 53.7196 27.1453 54.487 26.6409C55.4473 25.8823 56.4749 25.2128 57.557 24.6409C58.767 24.1709 60.137 24.3009 61.367 23.8809C62.0312 23.654 62.6336 23.2759 63.1267 22.7763C63.6198 22.2767 63.99 21.6694 64.2082 21.0022C64.4264 20.335 64.4866 19.6263 64.384 18.9319C64.2814 18.2375 64.0188 17.5765 63.617 17.0009C62.6886 15.8497 61.439 15.0004 60.027 14.5609C58.6063 14.1393 57.2219 13.6042 55.887 12.9609C55.2763 12.568 54.6301 12.2332 53.957 11.9609C53.2465 11.8033 52.5025 11.9327 51.887 12.3209Z" fill="#FDAD8D"/>
<path d="M38.967 14.4909C38.7789 15.2745 38.8454 16.0977 39.157 16.8409C39.4761 17.5729 39.9118 18.2483 40.447 18.8409C41.1445 19.7404 42.0747 20.4321 43.137 20.8409C43.668 21.0798 44.2616 21.1419 44.8305 21.0183C45.3994 20.8947 45.9137 20.5917 46.2976 20.1541C46.6816 19.7164 46.915 19.1671 46.9635 18.5869C47.0119 18.0067 46.873 17.4262 46.567 16.9309C46.0124 15.9181 45.1933 15.0748 44.197 14.4909C43.4778 13.971 42.6563 13.6097 41.787 13.4309C41.273 13.2555 40.7149 13.2588 40.203 13.4403C39.6912 13.6218 39.2556 13.9709 38.967 14.4309" fill="#FDAD8D"/>
<path d="M44.7169 3.13091C44.0448 3.22355 43.421 3.53209 42.9394 4.01004C42.4579 4.488 42.1446 5.10949 42.0469 5.78091C41.8747 6.98351 42.0445 8.21031 42.5369 9.32091C42.8618 10.1484 43.3176 10.9182 43.8869 11.6009C44.4594 12.306 45.213 12.8418 46.0669 13.1509C46.6323 13.3556 47.2516 13.3556 47.8169 13.1509C48.2356 12.9275 48.5953 12.608 48.8665 12.2186C49.1376 11.8292 49.3126 11.381 49.3769 10.9109C49.7846 9.08345 49.4882 7.16948 48.5469 5.55091C48.1567 4.8551 47.6212 4.25144 46.9769 3.78091C46.3156 3.32153 45.5213 3.09307 44.7169 3.13091Z" fill="#FDAD8D"/>
<path d="M62.697 4.42092C63.3892 4.83046 63.9323 5.45068 64.247 6.19092C64.5585 6.93217 64.7476 7.71906 64.807 8.52092C64.9796 9.65406 64.8378 10.8128 64.397 11.8709C64.201 12.4206 63.8334 12.8928 63.3486 13.2176C62.8637 13.5423 62.2872 13.7026 61.7042 13.6745C61.1213 13.6465 60.5628 13.4317 60.1113 13.0619C59.6599 12.6921 59.3393 12.1869 59.197 11.6209C58.8585 10.5172 58.824 9.34263 59.097 8.22091C59.2244 7.34306 59.5344 6.50165 60.007 5.75092C60.2375 5.25653 60.6295 4.85541 61.1185 4.61365C61.6074 4.37189 62.1642 4.30391 62.697 4.42092Z" fill="#FDAD8D"/>
<path d="M50.527 0.670905C51.0597 0.250435 51.715 0.0151432 52.3936 0.000706352C53.0721 -0.0137304 53.7368 0.193475 54.287 0.590905C55.2494 1.2821 56.0008 2.22731 56.457 3.3209C56.8438 4.13509 57.097 5.00623 57.207 5.9009C57.3222 6.80098 57.1837 7.71536 56.807 8.5409C56.5757 9.09587 56.1536 9.54985 55.617 9.8209C55.1639 9.97897 54.6795 10.026 54.2045 9.95818C53.7295 9.89032 53.2777 9.70951 52.887 9.43091C51.2866 8.45534 50.112 6.91308 49.597 5.11091C49.3728 4.34544 49.3115 3.54151 49.417 2.7509C49.5481 1.95436 49.9383 1.22329 50.527 0.670905Z" fill="#FDAD8D"/>
</svg>
